<mxfile host="65bd71144e">
    <diagram id="HIP3nbAZw_EuaXWnEj3U" name="Page-1">
        <mxGraphModel dx="1086" dy="658" grid="1" gridSize="10" guides="1" tooltips="1" connect="1" arrows="1" fold="1" page="1" pageScale="1" pageWidth="850" pageHeight="1100" math="0" shadow="0">
            <root>
                <mxCell id="0"/>
                <mxCell id="1" parent="0"/>
                <mxCell id="7" value="http://ics2o.mths.ca" style="swimlane;whiteSpace=wrap;html=1;" parent="1" vertex="1">
                    <mxGeometry x="40" y="40" width="760" height="480" as="geometry"/>
                </mxCell>
                <mxCell id="11" value="Please enter in a number and it add up the sum of all&lt;div&gt;the numbers before it.&lt;/div&gt;" style="text;html=1;align=left;verticalAlign=middle;resizable=0;points=[];autosize=1;strokeColor=none;fillColor=none;fontSize=20;fontColor=light-dark(#000000,#FFFFFF);" vertex="1" parent="7">
                    <mxGeometry x="30" y="90" width="490" height="60" as="geometry"/>
                </mxCell>
                <mxCell id="13" value="Calculate" style="rounded=1;whiteSpace=wrap;html=1;fontSize=20;" vertex="1" parent="7">
                    <mxGeometry x="30" y="210" width="190" height="40" as="geometry"/>
                </mxCell>
                <mxCell id="14" value="The sum of all the natural numbers up to 50 is&amp;nbsp;1275." style="text;html=1;align=left;verticalAlign=middle;resizable=0;points=[];autosize=1;strokeColor=none;fillColor=none;fontSize=15;fontColor=light-dark(#000000,#FFFFFF);" vertex="1" parent="7">
                    <mxGeometry x="30" y="280" width="370" height="30" as="geometry"/>
                </mxCell>
                <mxCell id="15" value="" style="shape=image;verticalLabelPosition=bottom;labelBackgroundColor=default;verticalAlign=top;aspect=fixed;imageAspect=0;image=data:image/png,iVBORw0KGgoAAAANSUhEUgAAAXMAAADPCAYAAAAHxTEoAAAAAXNSR0IArs4c6QAAAARnQU1BAACxjwv8YQUAAAAJcEhZcwAADsMAAA7DAcdvqGQAAL7nSURBVHhe7J13nB1V9cC/996Zee9ty256LxBCqCFAQu8EkF4FVIp0FERBQcACUqRLVUAUUVFRqtIEAQEhdAglgYT0vtnN9ldm5t7z+2Pee9lsFohI8Yfvm89kd9+bmTtzy7nnnnvOvUpEhAoVKlSo8P8a3fODChUqVKjw/4+KMK9QoUKFLwAVYV6hQoUKXwAqwrxChQoVvgBUhHmFChUqfAGoCPMKFSpU+AKwVsJcRBAR4jimUCiQz+cREZxzq/0sHSWcc7z//vvk8/nyOT3pec1/E//tz2atZeXKlbz88su95nHp7/b2dgqFAtbaT/2deqsHFSpU+PRZa2HunKO9vZ3vfe97PPTQQ2WBHscxcRzT2tpKPp8njuPyNUuWLGGfffbh7rvvLgubnvw3N35rba/P/HlTyvdsNst5553HQQcdxCOPPEJbW9tqz+uco7m5mX322YdrrrmGjo6OT/2d/lvLskKFLzrmggsuuKDnhz1xzmGt5c477+SnP/0pjz76KBMnTmTs2LEopejo6OCEE04giiI22mgjPM/DOcftt9/Ovffey9NPP82XvvQl+vfvD4DWq/qQXC5HLpfD8zy01jjniOOYMAzxfb8sfKy1xHFMFEWEYVj+WepAlFJlIdf9e4pCOYoiCoUChUKBMAwJwxDnHJ7noZQqPw89tN6WlhaqqqrQWq9xHlAerQAopXo9J5/PUygUEJHyfZxz5PN5rLXl63q79oOI45gHH3yQH//4x7S1tXHvvffS0NDApEmTyvmfzWa5+OKLuf/++3n22WcZNGgQEyZMWO2dnXPkcjlEpPwMpfwuHaW8LB2FQoEoirDWrnYvESGbzRKGYbk8S5+XyqX7AWCM6fZWFSpU+LiotYkAtdbS2trKQQcdxHPPPUdVVRV33nkne++9N845TjnlFP7whz/Qv39//vjHP7LttttSKBTYcccdeeONN/B9n9/+9rc0Njay//77M3To0HIjvuWWW7jnnnv44x//SH19fVkANTc384tf/IJnnnmGZcuW0dbWxoIFC5g+fTphGNLS0kJTUxMrV66kurqayy+/nH79+vHCCy8we/ZsFi5cSFtbG4cddhjV1dW88sorvPvuuyxbtoyOjg5qa2vZbbfduOqqq6ivr8cYUxZkURTxwgsvcNZZZzF//nxuvvlm9tlnH4IgQGtdHqlYa3nooYe4/vrr2XHHHTnrrLOorq4uv1tJgJ199tncfffdHHnkkVxwwQVUV1eTy+X42te+Rn19PSeccAJbbrklvu+jtV6ts+sNEaG1tZWdd96ZN998E4od5Pbbb8/9999PbW0tXV1dnHPOOfz6178miiIAxowZwzPPPMOQIUOg+HwzZszgtNNOY/PNN+f888+nX79+LFq0iOeff55sNktjYyMzZsxgzpw5eJ5HU1MTK1aswFrLVlttxR/+8AdqampQShGGIaeffjr19fVceuml5edduXIl999/P0888QTTp0+nqamJ6upqzjzzTE499VSoCPUKFf5zZC2w1sqjjz4qffr0EaWU9OvXTxYtWiRxHMtTTz0l/fv3F2OM9OnTRx544AEpFAryj3/8Q4IgEKWUDBw4UO677z4ZPny4HHTQQdLZ2Vm+94knnij19fVy3333SRiG8u6778rAgQOlrq5O3nvvPRk/frwEQSC+74vv+xIEgXieJ57niTFGjDGitZZUKlU+r/t3nuet9llVVZWss846UlVVJUEQyNFHHy2dnZ3inBMRkWw2K3feeacMHDiwfI+JEydKc3Nz+RxrrSxcuFBuueUWGTRokPi+L4MGDZLp06eLtbb8boVCQa644gqprq4WY4ykUin57ne/K7lcTtra2mTLLbeUIAgklUrJ5MmT5bHHHpNCoVC+/oPI5/Nyyy23iDFGAAFEay3bbbedrFixQt5++23Zb7/9JAgC0VqXz9lzzz2lpaVFrLXS3t4ud911l2yyySbi+77U1NTIiy++KIVCQW677bZyfpbyu5SXpTwxxkgmk5HLLrtMCoWCxHEsra2tstNOO8m4cePk7bffltdee02OOeYY6d+/v6RSqdWuNcbIgAEDZO7cuRLHcc9XrFChwr/JWgvzs88+uyx4Dj30UImiSNrb22XzzTcX3/dFKSXDhg2T+fPnS0dHhxxxxBHlRvvtb39b/vKXv0hDQ4MMHDhQZs6cKdZasdaWrz/55JOls7NT/vrXv0oQBJLJZOTBBx+Uiy++WEaOHCnDhw+X/v37i+/7kk6n5dRTT5W7775bnn/+eamtrRWllPi+L/369ZPx48fLKaecIr/73e9kq622kqqqKqmqqpKtt95ann/+ebnlllsknU6LMUa+9KUvSUdHh8RxLO3t7XLjjTdKbW2teJ4nWmtRSsm4ceNk2bJlEsexxHEsK1eulL333lsymYz4vi9aa6mrq5Onn35arLUSRZEsXbpUzj33XKmurpZ0Oi0DBw6UVColo0aNkrlz58rKlStlnXXWkT59+siYMWOkrq5O6uvr5ZJLLik/T0+ccxLHsSxatEiGDRsmSqmyoFZKSX19vRx88MHS0NAgqVRKtNarCfOzzz5bOjs7pbOzUy677DKpqqoS3/fL5fTggw9KoVCQV155RcaNGydDhw6VUaNGlfNi6623lhtvvFGee+45ufjii8udWGdnp0RRJMuWLZNx48ZJTU2NfP/735eNN964nD+ZTEZ22GEHufTSS+Wiiy6SK6+8Ui677LIPfNcKFSr8e6yVMM9ms3LAAQeIMUbq6urksccek3w+LzfddJNUVVWJMUaUUrLddttJc3OzLF26VAYNGiRaa+nXr5+89957cvPNN0t1dbWMHDlSFixYINZaKRQKMnz4cPE8T4444ghpamqS6667TjzPk+rqapk5c6asXLlS5syZI++8846cfPLJ4vu+DBgwQBYtWiT5fF7y+bxsv/324vu+bLLJJvK73/1O/vKXv8i0adOkq6tL5s6dKzfeeKPsuOOOUltbK+uuu6706dNHPM+TPn36yOOPPy65XE66urrkqquukvr6ekmlUtLQ0CBHHHGEDB8+XOrq6uSpp56SQqEgYRjKK6+8IvX19aK1lj59+pRHDL///e8liiLJ5XLy85//vCzsjzrqKHn22Wdl5MiRUlNTI1dccYW0tbXJNttsIxtttJG8//778vTTT8tmm20m/fv3lxtuuEHCMOxZDOU8e+CBBySdTq8mzLXWYowpC2etdfkdS+dddNFFksvlZPr06TJ48GAxxZFKOp0WrbX86Ec/ks7OTsnlcjJv3jx577335N5775VUKiVVVVXyyCOPSDablfb2dvnud78rnufJZpttJvl8Xqy1MnfuXBk6dKhUVVXJUUcdJSNHjhSllGitJQgCmThxojz33HPS3t4u2WxWcrmcRFG02mimQoUKH48PN84WyeVyzJs3DxGhoaGBsWPH8uabb/LTn/6UQqFQ9o4YOXIkcRxz3nnnsWLFCgC23HJLBgwYwDvvvEMURWQyGUSElStX8vjjj9PU1IRzjtGjRxNFEffccw9KKSZPnsyYMWOor69n5MiR1NXV8dRTT+F5HsceeyyDBw8mCALiOC673M2aNYtvfvObnHzyyRx33HFMnz6dYcOGccQRR9DW1kZXVxdz586ls7MTgK985StstdVWGGN44YUX+NnPfkY+n2eDDTbgkUce4Re/+AXf+973sNZy0UUX0dbWRi6X4+abb6ajo4NMJsPNN9/M6NGjERGeffZZFi5cSFdXFw8//DD5fB4Az/P45je/SWNjI57n0dDQgIiQTqdpbW1l4MCBbL311tx6660MGzaMX/3qV3R1dXUrgVV0dXVx4403UigU0Fqzww47kMlkypPH1lq01vTt25cf/OAH7LHHHmitMcYwYcIERIRnnnmGlStXEgQB559/Pl/5ylfwPI9HH32UBQsW4Jxj+PDhjBgxgr///e845xg8eDCbbLIJ6XQaay0vvPACFO3wXV1dNDY2ct9999HW1oYxhq233pqTTz6ZLbbYgv79+1NVVcXMmTO54IILyGazpFIpUqlUea6iQoUK/yE9pXtvvP/++zJw4EDRWssGG2wgzz33nGyxxRZiutlslVIyZcoUueKKK6Surk601pJOp+Xhhx+W1tZWmTJlimitZciQIXL00UfLFltsIQ0NDWKKtti7775bZs2aJYMHD5Z0Oi1XXnll2UYdRZH8/Oc/l5qaGhk1apQsWLCg/Gz//Oc/pU+fPpJKpaSurk769u0rAwcOlL333lumT58uYRjK7NmzZdiwYZJKpWT06NGy++67yw477CDDhg2TX/7yl9LS0iI777yzpFIp2WCDDWTmzJkSRZHEcSwLFiyQgQMHSn19vTzzzDPy4osvSt++fcUYI5tuuqn84he/kM0226w8mth8883loYceknHjxpXzxvM8qaqqkmHDhskpp5wijY2N0tLSIptssomMGjVKWltbpampSX7729/K0KFDZdy4cbJ8+fJuJZBgrZXHH39c6uvrBZBUKiWPPPKIXHHFFTJmzBgZMGCAjB8/Xo466ih56aWXZOXKlbLVVluVNfDnnntOFixYIBMmTBCllNTV1ckNN9wgX/7yl8va93rrrSd33HGHFAoFaW5uljFjxkgQBHLllVdKLpcTKdaHQYMGied5MmnSJDn88MNlvfXWK5unBg0aJDNnzpRsNisrVqyQefPmyVNPPSVHHnmk9O3bV6666iqx1pbLt0KFCv85ayXMH3300bJZYdiwYTJ06NCyPba6ulqGDBkiqVRK/OIkZcl+vcsuu0hHR4csWbJE1ltvvdWG/yV7rdZaGhoa5OWXX5a3335bBgwYINXV1fK3v/2tnH4ul5MpU6aU7fXZbFakaEP+2te+JqlUSgYPHixPPvmkvPbaa/LWW2/JvHnzpK2tTaIokt/85jfl53zzzTdl0aJF8uSTT0r//v1l6NCh8vbbb8uoUaMknU7L1VdfLR0dHdLR0SHNzc3y+OOPS58+fSSdTssNN9wg3//+98s2/ZLd3S9OsPq+L1tuuaU8++yz0r9//7Iwr6qqktNPP12mT58uHR0dks/n5f3335dMJiPjx4+Xp556SjbffHOpra2VTCYj++yzz2qTxCWiKJLzzjuvPBE5ZMgQaW1tlVwuJ42NjTJ37lxpbGyUbDYrcRxLW1ub9OvXr2zueuONN+SGG26Qqqoq8TxPMpmMGGMkCIJy2YwcOVKeffZZKRQKcu+994oxRkaOHClNTU3leY5HH31Uqqury+VcmkspPdfkyZOlpaVFoiiSKIqks7NTFi9eLEcffbTU1NTISSedJHEcV8wrFSp8gqyVmWXDDTcs+4gvXryYJUuWoJQik8nwne98hyeeeILRo0eXfcSNMaRSKc4991yCIGDq1KksX74cgFQqxbrrrst1113H6NGjAdh6661Zd911y0EvWmuqq6vL6RcKBZqamkin05x88smkUqnyd9OmTSOOYyZOnMhrr73GAw88wJVXXslhhx3GpZdeWnZ1zOfz7LLLLjQ2NnLKKadw2GGH0dLSQmtrKy0tLcRxjOd5zJkzh9tvv52LL76Yfffdl4MOOojOzk6CICCKIn7/+9+jteaUU05hwoQJDBkyhL333ptMJoPneRxzzDF4nkdHRwee5xEEASLCzJkzWbhwIWEY0tXVxZ133kkYhsydO5e99tqLt99+G+cce+yxB7/4xS9Ip9PldywhIuVIznQ6zaWXXkpdXR3pdJoBAwYwevRoBgwYQCaTwRiDc65srhk7diz19fXce++9WGuZMGECu+yyC/X19UyZMoUBAwYA8LWvfY3JkycTxzGvvvoqIsL2229PKpUqp//cc8+Ry+UA8H2fbbfdlp///OfU1dWhtWavvfYik8mQy+VYsGABN998M7vssgt//vOf0Vqz4447fqDffoUKFT4mPaV7b4RhKGeddZYERVdDU3Qru/nmmyWXy0kYhnLhhRdKJpMRrbVUVVXJhRdeWHZZO/XUUyWTyUgmk5FvfvOb0tnZKdlsVsaNGyee58kBBxwgbW1tsnjxYhk/frzU1NTIAw88UE6/vb1dJk+eLAMHDpTnn39eoigSKWrm+++//2pub90nAktad0NDgyilyhpo6fva2lq5+OKLZdmyZTJp0iTxPK88YVd6T9/3pa6uTi6//HK5+uqrpaamRoYMGSLvvvtuebLz29/+ttTW1kp1dbXcdttt8thjj5VHC4ceemj5+bTWUl9fL1tvvbV89atfFdPNdXLLLbeUO+64Q9ra2iSO4/I7dieKIrn00kvF8zzp27evLF26tOcpq9HR0SFDhw4V3/flwQcflJdffrlsMnr88ccliiIpFAryy1/+UhoaGsTzPLngggskDEPJZrNyySWXiOd5ctZZZ0lnZ6fEcSwtLS2y9957i1JKqqqq5LbbbpN8Pi8zZsyQIUOGSCaTkYsvvlhyuZzcfPPN5fz2PE/S6bRceOGF0tnZWTGzVKjwCbNWEaAiwrbbbkvfvn2pqalhzz335Oabb2bnnXcmCAKMMWy66aYsWrSITCbD0Ucfzdlnn006nS4HwTz33HNsuOGGXH311dTX15c/b2tr4wc/+AGjR48mCAI6OjpYsGABhx12GKNGjYJiQMzChQt59dVXaWtr48ADDyxrdkOGDOGNN95AKUVDQwPDhg1jvfXWY6edduKqq65i/fXX51//+hetra3lCMdNN92Ugw8+mFtvvZX999+f2tpaJk+ezNy5c8ta78CBA5k4cSLHHnssN954I3vssQf19fVMmzaNzTbbjCOPPLIcRJTJZHjmmWfYa6+9OP3006mrq2Pq1Kl8/etf55JLLmGjjTaio6ODpqYm2tvb6ejo4MQTT+Sdd95h11135dJLL+UnP/kJEydOXC3PesPzPF566SUOP/xw9t133w88r0RtbS37778/++23H/X19bz11lsMHTqU0047jVQqhdaaVCrFY489xoQJEzjnnHMYMGAAxhiGDh3Kgw8+yNy5c/n6179eft/m5mZef/11dt55Z370ox8RBAE1NTXMmDGDESNGcNppp9HQ0MCyZct47LHHaGhoYPfdd+faa6/l8MMPL79jRTOvUOGTY60iQKUY3h5FUdlzpWQG6B7tWFqvpWRmKX2Xy+UIwxCtNb7v4/s+IkIURcRxjO/7eJ4HQFgMxU+lUuU0SpGUXV1dpNNpqqqqyvcuheg758rCWilVTktrTTabLYegA2QyGYIgIAgCfN9fLd3SORTfzfM8PM/DGIO1lkKhgFKKdDpdjhgtPV8pTYAoitBalz1uCoUCuVyO559/HuccU6ZMKafh+z5BEHykcCuVQRRFKKXKywx8EHFx3RylFJ7nla+naB7xPK9ctrlcrtwxlT6Pooj29nZEhLq6uvLnpTz3PI/q6upyPuTzeXTRc8bzPOI4pqurC6VUOa9L3isf9twVKlT491krYX7BBRcwY8YMeju1JIB6ftddMJUELcXzSr+r4noqPT8v0fOakj29+7k90/0get6/lHZv9+n5Wc/zej5nid6+63mttRaKQrz0LiU+Ko3u+Vii59890yu959pQOr973vSWJj3Kjg9ItzdEhEwmw3HHHVe2nVeoUOE/Z62E+V/+8pey/3FP4dOzUZeQ4qJSUlxFr7fG3fO6nuf0FCbd0+p+/56UPut5vxKl73XRN7vneb09e8936P53b9+VqOTRmnkUBAG77bYbG264YUWYV6jwCbFWwrykTfZs0BUqfBy6dxSVOlWhwifDWgnzChUqVKjw301ljFuhQoUKXwAqwrxChQoVvgBUhHmFChUqfAGoCPMKFSpU+AJQEeYVKlSo8AWgIswrVKhQ4QtARZhXqFChwheAijCvUKFChS8AFWFeoUKFCl8APrcI0DWSVaBY+9Du5HoBpdb6OkGSvX8qSxOsFR+1fstHI0Av69L8u2VdKrQixVVoVvvsi02Sj2vDGnkNJMW3dtf3Rjn/JXmO7vf7z+vIp8N/2tZXq3P/6X16Vv+PcZ+14TMR5jYusFDNQpyAAoege7yhFoVDYQ0EUsMAhpJRBqsU4gxKhQiOSIesjBtZInNpU0vRUk2N1DNYjaC/GURACotF6xRaNMZqIi+LsrBMlpGlnZQLEOVASbnQHBaj0qRJU6v6EEgG43yccYDCi33yXoEWWU5W2lA4MpJmoBqF0gqnBSSNwaLEgECoCyjxaI0X0am6QEUEuo7+jERriw41y/UCCjYiMGnqzUAyzoDRaAyCAhzKKUIdstIup0vaSEmawQwHHWBVRKtbTp4WAlVLPzWKQCfLCX80FhGNEoUjZIVdSpe0YLTPAEbgeT6B83HFuqfVR983pECrW06n7UCZVoxtwKq4mzARtGhAUGJwWhiohpHSaZRLA5ZICwaHVZacXck8mUubLMe5AoFO06AGMUitQx/dH+1AlEIrcEon8sY52lhBV9SOMw4tAsohqtiwFAgaD+ij60m7BkT7GBUjksZzQugJAckyyyWiOMLqkBWyAHGWWGmcKqAEfDGERiNoAhcj4hFpTcbGFLSixlVR5w0CFE12HjERfWUEad8nJWnoUWYilsjBcuYTuWZqzEjqacBojYpjlrGYvCugBTwdEWpQ4lBrtKyEjGugnzcIDx+l1ZrC3cUIHk4VMNYjNJaQDpbbRTS5xWSlHacV/RjCED2cWtOAJ1VoNF7kEQUFkBR5lrDUNhGoagbLoKRcdbIsdBlxhERIFLHYzEGcYogaidYpAmvImRW0Rx10+CGeWAbFI/CDWgIV9LiPECsLaLTNMl8WIKKwOmaIHUmVV4NoMD3KEQmJlIfvHDiDNQ5EECwF2mhyLTS6hXTolYiK6WMHMEiNoZ8ZRJoUgodBsFowsYczISpWLFBzgQJOCREGIyEok9S/bmgHnu7DQDUIpXyUUhjV4xk/Bp+JMJ8vM7iq4zQavdmEKsKPM1gdr3aOKA+l8mRizajc5lzQ749YkyKwGlSBXGxZzAz+1nUrU/0niE2egilgdYHquJq0ZJgQ78R+mZMYw8aklQ8qIK9BkaNDlnBzywW8a14g8grEKtl6Lqn8godFiSXSaWriQexkDmCf9MH0VwMwrhZrIlpo5Bdt32e6eY4YTd94IBfV/Yl+MgBPUoQepKzgFGgRrHIUVJ5Lu05gpnmHSGXZPtyHU2p+TFr60W6aua7lRObpN5kY78wx9VdQp/qiFCjRJJv6lYR5gVvazmMqf2OdeAvO6HcDda4fse7g1tazeF0/zViZyDfqrqe/Grxa3vZEihqDwqLwQByNaglXdJ7BAt4mkCqOT13AznofnAGFIMqhCT5So865Dv7Ydj0Pp+4k67eSjlJAslBbCas0VkHgsvTLDuE7tb9hrD8BpR2+dYRKaGUJz0T38kB4Ny1+MyId5NMdpMI0gatnSDiKA6u/zhZmV+qlHx4BTsdYoEAXD3TcwsP2FrKpAkoyJQmO4EDAFweeB66aCW5bDqj6KuPURnhUJcJOvDU0KGeFRjWfy1q/yRL/PUIvwrhanMmjKIBoxKXQKiQ2FnE+RoWkbRXrFCZyTv3NNMtKftZxEllpZB99Cvv0OQYT12B69JOWkEa3hKvaT2e5nsY26giOrfkh1a6aVrWMW1p+xOv+M0SeI1YRogyi4qS9CKik1AAwpNggO5kzBlxBvR2M1moNWR4TohBUpCiYPO/aF/lL+61MD16l4HeRD3KkozROO4Z0jGDbYB8O9k6iLjUYT8Bph7Fpno7/zK/zl5Ox9Xyn/irGqnF4atUWkADOWWLRvGWf4uauM7HGcUzqYrbypxAon9fCJ7k5dx6NmUYyYQ07yYEcXfd9aqhb7T4IxMoBITPjN7i87UxifxHaKU7KXM1W/oEoZfB7rvhpQQmgBavzxBicKzDbvcLdXbfzlvknuVSESIwS8Ajw4gyT2ZtDMycyRI2i2qYoeArfeSjlaKOVi1uPZW5qGrEWnIBnfTQKVLIHxKoHSDEqHsf36m+ivxuO7zR8tJ70kXw2NnMnrEw30hisoN1vJzSt5LzO1Y6YdiIJyaJo8bPEOkvKQqwLRJHlSbmTi93XeTz9Fzr95WgU9XYwA8IxaJeiRbfxdPAgF9tjuadwE3lXwKmYlFh866OdZkV6CUuqFtHudYDkMWIx4vDEgUTEQEE3scx/hz+ZS/hZ59mscEuJTAHfJntqrgyWsCJYxIqq2cxNv8ur4bM4BESjimqf6GJtEVjoZvCefpGm4H1avCV0mtZE2FtQVtHkF1iUbmFBdQuiFKKiRJCrRC8HBUrhsHTqTpZULaExPR9lW/BUAe0UrSpkcWYZzamVKFldcH4wLknHCbEqsMjOYYF5ncXVs1mSep9HcrfTqVpxuETg06NCfgAFHbIytYyV3jw69Api1UVeh6sdVuXxrBDjkfOyOK8LlMXEmrwqMM9N4/LOM7kjupLlwTsgLfSJGhiZHUefqB9WNzEv8xrXxmdwU+d3mS2ziYhR1sM4jYkhp9tZWtVIu9+KI4uWEE8cHkJQHJG0e62sSM3in6nfcFn+m7zjXqegLBZQPTogAKsilAgFv4PIdGJVlpxeTuRydOpOmlUTjak55HUOJzHKhkRiyao8kbLEKo9ROZZnFrGoZhmtqhMTeVi1akOUEgqDbw2twQqWZVpo91aii2WQJaYp1cjSqvksz8yloPIoyePIkzNJe8p6HeW2lVd5Ih1i8IiRZISyRno+xkFBhTwZ/Ykr7elMq/kn2VQT1a6W4flR9A0bqArTNFbP437vZn7qTqeRuYgIXpwiNFnydLK0Zh5N1bMQ6QR6aNOAUoLvhIIKWZ5pYUlmEVndikYhsaZdd9KYXkyzv4iF1TN5iUfIuRVrmNtKCklBhBfzD7Go9i0WVzWztLqLvBG0uF6Vj9gk6nGsHCoyRLaLv4a/4sL4FJ6repCC7iCVD+hbGES/eAjGebQFy3lW/46LCl9jauEROnQHxhlQCqsUlhzNqbmsCJbTZdpRKkfodVHwe5F1qoBVnaRsKjFZ6TXL/+PwmWjm77tZ/CQ8mKV6DpvZPdndHIQnBlUukERYJcM8n4zKsJ3eCUVAXmV5OnqI2+2FrDTLGRANZhfvECaY7Rmq18E4n+UsZZp7mqfie1noz6JOqjjK/Zgp6S9T52qxWtHsFnNBeCJv+y8wIZrEV8zpaNJo8VE4IoFY5Vnm5vEvdw/T1TScZ/lyfCbH+edgdIqlai6XRSfyln4FdBYkza7Rl/mOfy1pE6AlQGGIdYHAGQqE3B/ezG/5Ke3pJpT12aVwGGdlfka1NNBGEz/pPJ63U8+zRbwn51TdSJ2qw3MpRMcoPFxSSORVJ9d0fYvHU39ifH5zLsn8njozklCy/LTzJKam72OTaBfOz/yKAWpozyLogYA4wGCxFFQHv8iezxPeX0AblGQJ7GAuSN3KRnZrjE4R6wgfb83heQ+6XBO35H/EA/5vqYlqOE1fTEplStYNpKhBKDQOHyshk/3dqFH1oBRz3PvcmjuHt73n8VSGze327Gz2YZS3GRmpJataeD+azj/tn3hLPU/OhGwT7cc3a35KPxkMaELp5A+FK/iTuYGauJaz/OtIuQyepBAtxAqsxORcG6/wCP+0D5P1s2ye35Fzq25mgDcUJIXp8aqh5IjjkNd4gtBlsUoBBi2K13iCp+P7MWj2V6cyQo8tDsU9BGFAPJz1MxNolnmcGx1CG60cUvguX63+BoYUxqwu9CxCo1vA+YVDmOu9x672K5wVXEOVpFiiFnNd9mReD55msFuHw815VMceOa+LwKVXKyFJum36uoFs6m+LMim0At1Dj3MCqALL7WJ+FB7KbP99hhVGcVBwPONlIvVmMJHrZIlbxJP2bp43j1FQIfvkj+LE6h9TI/0oeO08Gd3FtfpcqsNqfuLfwVizLeke5pFYQhTwYvQoV9pv0RU089345+wUHIofe/yTB7nWnUqbvxwnPnVRLed5v2Ybb7/VntsiiAtpoZ0LC4fwrvc6ocmTjvpxjnc925t9MVStofTGRHiiiJSQjzr4e3wHf+IqWnU7owpj2S04kg29ifQzQ8FpFrj3eS96nX/InTR6C6mNh3Kq92O28/ejilqc0qxkEWd37cui1CwmRDuxuzkMo6pRAhq7Wv0Hn4yqYXO9K9rzUcT4vXR6/y6fiWbuk09eRAWMZiOmmIPZKTiEHYND2Cl1KDumDmGX4FB2CQ5iV39/tjV7gKoiNLBMFvGnwlW0mCZGRuM5IX0hR/nfYwuzO0PUegzyh7GJ2YIjvNM5Pn0+4wqb0qFy/Nlez4J4BiEO4zwcGs8lIqSva2DzYFcm+buzpb87W/i7s5W3O1sHX+JA/zhOSV3DAL0OEPOWe4qszhGbGF8CjGgi5aix/TFKeF9epYPEtqaUIN0m9/KqwBvhc2T9CC0+nvXQkgyAlfNA6WQuQIekJAfKosQrCtukaBJtP6kIVgkKwTgPJEBD8rsulMVjSZ//UKRUrRyIotku5yV5GkeBbdwe9C+MoC1Yzsv5pxEV4xQI/kcK8gSDdh6eM9RKDdul9mEn/3B29g8v/9wx+DI7BAexs38gOweHUaP6YVWACws8HN7Gm/5z+BKwb3QEpweXs0PqAIbr8Qz0hjPCbMKuqUM4OXM5uxSOwpcMb+qHeST7+2Q7PRRKDAJYEwMZJng7sUWwB1sExbI2u7Kt2YvdvEM4OriY7fShVOGxRM1kocxBOUHUmpq5wSOja9nG24edgsPZMTiUXYOD2Dk4gLFqM6xnMdpnU297dg4OZafUweziH8qOwb5MDLYlRTWh0sRKgxgEj8iAkYDE9LXqMJLMKSiXQmExJCNNUQpPPEQpIqPow3B28g5kJ/8gdvUPZafUQezY7dgpdRC7pA5iQmZbPG3wRNCyZjk6ZUE83nTP0cxyqsM6jvTPZG99NOP9bemv12GIP4GJqT05NnU+W9gdUVimeg/S6JZhjcOTIKmHEoEyoNJFBWB1PHxEPBQ+SiwOD6fjxDRkHFqSeRBDmj7xALImx2v2BWIJEesQpFzTRYQWN585+n2ctiglaEJAUJKMNnriiQJRCJZ5vM890U20mHbGxZtxSvpq9g9OZWOzE0NlPEP1+kz29uSI1Lc4zvyUgdEYOrzl3Ff4OcvdYiCPiYVI+RT8kFArBsgYtvMOYGf/QHZKHchOwSHsHBxS/rmzvz9bBHviGYUngu/WzKOPw2cizI14FIzFdx4pp1Gk0MpPDpLD2AyeC/DFw8MHZcEKL0b/ZHl6Nmnx2d8/kS293UirPngSoHRxctKlSatqNjHbcnD6m1RTRXuwhCfz9xIph2iFU+BhCZxBTNIXgo/VYLVGKYd2PngBw9QIxskYIiO06BZC1YXG4IqamI9hXLwhmbiW5WoO70UvoW26OMmW3CdWMY1uPu/yIg22jj5xX0RbrI7RaLQGLckErxYIPQ/EJBb80mQdJJUShcJgxAJCrC2xTswxxZqP0wpnbGIL/AgEiFSEJUY7x8z4BdqChVTZvkxiLyZ6O2FcjmfjB2hWyxFivMTU/JFYBNEhSnfg8HGqGjSobocRg7EBWgm++KBAE7LcW8rr8hRWDOvHm7J3zfH0t8NAMmg8tBMCZ/BIMUiN4Mg+p7GO3YguP8/T9j6yqgWNTspAHIpk7sIph1IeTid5q8SgrEGUT7VOM0lvS4yhw7TRRRsWXfTcWB2jfJTRGJXCKJ8UKZSkAI2hCudFIDqZFNQaQwaDIS3ViJcUlRad9IkqxEPQsGpitluSJZOClhgIimY3IVIaD5UIS9EEolAqJvI8AgnwXBrPZVY7lEuhSSX30bb3PtkBFFgRdRBqR9pXjPAnol0d2nkkRt3E4DaAkWzhfYl+UV98fJpUa3IDZXBFwxwIopK6vgaK4pSkwuoIT5LxuRYPrTRKxSgn+C7FRLbDjwPeiP5Jp2pOzM/OERGjrcNJnn913UcoBYZF65IOqxNnBCyemF5NSjgPqyNCl+eF/KOsTDeSjjMcnD6VTfxtMFRjxMdog1EaXwVUmT5sl96VA4Lj8XzDfG8Oz4ePUtA5BIsWjedMsgOXp1AaPJfCs6niJOeqQ6PxxKJLnng9beofk15y+pPHFq19VoXEKl/08kjMyqUj9EKcjhAlRAq00zgX8c/oAXImywg7ni29HamyfVAuaRAOhZIUoi2CpVb6sonZntGFCcRkeU39ky5ai7104rlilUtmoSmgiTASoYkQDdbkirZSQ5sIVmk8l8YqMGITjRpIRQH1YX/Wc5sT6oiphUcIyaMk0by1UjjRTA0fI+u3MzbcmFrXD1Aocdii1v15oYoeAKDJqQ6ejR4EgWHRemyqJ7OlmUI6rmeFN4/Xo2dAVFE49tIweqIEzwYYZxByQJSMRkSXD6ctsZfHKUm8TZxBXMzU3F9ZbpZSJSmmZI5loF0f8RRW+aiiW1yShCJFFf30YHaWw9BkmJ+ayVw7DaFkfyxKLOXQ2G5HotnlfSHSjnRcSyfNRF6EojhhBZhPs4zEJvMsCFoMBR3ilMUpW9Q5HVbFiIqTGueE4j7qa6CdhxZNDDjxiTXEWlY7UHkUEUo5EK/X0VsiXD0GqBqUiumQTt4K/05EJ6FuxYssvgXQaOWzPXvzQ+83nB/8mo3sphgHFrd6j/QfYJUj7dJM1DuTUbUsNbOYkX+VsKjEGNE4ZWlhJa/yJJ4yTCzsWvRRWvP9uuMUIIpWlvO8/JWYAhu4zZjEngQ2TYAu+XN2Q5GO0myvD6BPfjTZVDNv8jgdLk/Bi/EpoCTAtwrjEmXMmhzWhD3uA8omppVSXjn1ydS1T+YuH4Ev4BX1S60MEgshudUOR4HQOeI4eajQaBr1ApbqORh8NmASDQzEVwHoxFKQ3E9Q2qAI8FxAX9ePbfRuxEqzVC9lGe9iKU1fW5y2hCrC4nDiik1HiF2MdkLedfCCPMB89QJVsWVdhpBSdYRKY0ThiBHlyKg6tlF7EpBhevAyS9U8rMQgEVYi2unkFXkaD8W23oHUhtWAD9qtNsztWWU+lB4nr1Hf1hqFdiliJSx0s3jVew6rLFunv0St6ccYvTH94xFEJuYp9zdytBPpQm/K6hp4EmCVR6RBx1WELkehWzkXyBJKHiJFbGOsxFhtsUoxTT1N1nQwgP5soLcgpQtgQBMnWozSxT5I0BgCl2Grqm2oCmtAxbwQPUNOcsWyLmWOJO5qFpwoRBSIxbg80MEc/TJPF+7HdxG1kmaYGpJoSp+QttQdVdTENIK2EOoOWlUjkXTSJSvpkpV0SjMd0kyXdNJFG6gC2uTxxe9lMi9xzQvJ42ilQCcRbUS0EdJa/j3nYgqSCEiSacYe9yFpC+Kzgb8V9W4oWZXlD+pSfmJP5LHcn3hLv0WHakEoIDqixgxivL8963uTqQqqEZN0CGs+48dDkQYMQ/UQRtr1yJuQ13marO7EIXhiiLWwRJayMDWfgdEQNk9NxKxm1hFUL5q5qKTjXmJnsSyzAKVhc29nqnSAxmF1V+K63IPI1wwwg9lEJhG4NMvcQlayoui9ZnFKUCZRMmMbEjooEBFKrnhkCSVHu9+FdQFYXexY1zTpfRw+E2EuOsLYgFAVeE4e5urCd7im/fRux7e4vvUsbmw7k+eie8DGaFugNWwi9Noxsc+I1Di0MTidaPAoi+d02e6LAtEW5cG46o3xnSHyC6zoWtYtkEJwWJrjFTwY38Ffw1/z1/BX/DX8NffKb/ld7houyJ7MdfY8mrwm+netwxT/eNKuquxJYLUlHxSItGXLYGeqo74s00uYyzs4lUfQOOVYod9jnnqVhnAMm6Z3ICMawSCY8r0+NyTxmsE5XowfIa/a6FsYyKZmOzJxNfWqgSnqMCwx79lXmM9rOOXW6Ex6w6mYyCtgNbSlWrip67v8rP10rmk/jWvaT+Nn7afzs47TuK7jW9zaegFWImKEUAnLpRntLPUMIq1TiVlLDJ4AKjFhJPbSRIsFTbUaSB89gICIhfIGThVWex5LyIPudv4a38Zfw1/yQHQbf7O/4i/uOq7JfYdLOs5gWuYVdFzLXvHRDFFjUfjJtMKnhIhHh9/Fvepmvt61M8d1bc6xXZPLx9e7JnNMbgtOz3+J9zIziLTCmcIa3hxOWWYH07ii/Th+2nEcl7YfzyVtx3NJ2wlc2nZi+ef1Ld9jpn0LYoXYpBX0RCkBHTJQjeFYew5jshvRpRzP+vdzkz6XH4QH8K3s7tzU8T2eKvyZ+bxJXnWC04gk8xTqE8w0RYxTjhQ1bM5uaCxv2efJEWJNhOCIXRevRI+SU1m20DtRx/BEpIlKOnOVjH7WQGkclhbXgraCkVoGm7E4qQIt+NK7dm+cRolhlBqP71K0mlZa3cIkXgKNUyGRiniJJ7k+dxrXdHybG9rO4Nq207mu7XSuazuD69u+xdT2u8jHueJ8gSrGXfznfDJ3+QhEWxwxkYmZ58/iyfSfeaLmL92OP/OPqjt5IXiAmUxDWw8DZY1aqZgMAZoMmgCNj8KAVskAsVR2yqDwyNhajKTRkqegClhtCcQHCRAdsVTN5hfqPG7xz+IWfRa36PP5pT6LOzNX8ErqSZyzjO3ahONrLmITfw98lfhXi4oxkiZtQUkNAxjBxjIJrS0v5h8nK10IEErMs4VHyZp2NtVb0dcNIDIZFHkElQS3FO1LBiH0HE4EiMsjDiUGcRZlhZiO4qDMYMQkpaYS08THwSkBp2lTy3hJnsJqy7rhFoxgFLG2pCTD5pk9qXV9iVItPJ5/hLg48bRa0+ilnTglgENUTN5byYv+YzxRc/dqx5OZe/hH9Z/4V/AQTsA4HyNdxDpEuQBPGfy4Bk068blXHopkRKYSiyM6UdkRSdPX1lPQBtGdiLjEbi0+KKEr1c4d6lJ+qb7PrXyPn+tzuCb1PX6tLuSp4M8sqprPkOwo9o1P5dCqb5JSdYlpRj6ZSalVoyeFwqIVxAqcgVy6i87UUrqClWT9ptUPr4koaEHjiIGYoHyvJE8UILSoZl7MPMnzqWd4JXiKF6se5sWqh8rHC1UP8VrVozRLI1aHaCdIzyAaQAhQCJ6GrTP78/2an7N/x9dZJzsOQejSy1mQfouHUndxpT6TH+QO4U+5q1jMIqzkEcKkI8dDXJCY1lS0RucKEGNRTjCik/cTjaiYWDvEKURDrGK0BNS4fmyX2YvasC8LzdssdDOJSNw8m2niKf0QNVHAFt5uaDIYSd4maV5JIGJPHDFaLJYYq5KAJlEUvY8S023J3NYdEYMSqA0aENIIQo4cPgpRFtGOUEcs8d/n+eBxnqm6l6eq7+cfNffweM09PF5zN4/V3M1MMw0fkwQUISBrlsfH4TMR5rgqwCOwKdaLNuFLha9yYNeJqx17xiewq3yd9ZiMaJdMgKo8ogwFwBODkTU1ip5oEptwjEls3ihU2ZgCSjQ1Us/m4S5sGO3IOm4L+kVDSIUGZwsMkn6c6P2QH9X8iu35EoFNYQQMGlHJIFKRNCajDJsHU1CkeD96lZV2GUrn6WQZbxaexXPVbOrtilG99PSq+J8olJTeTyfapySuYqITLUIX3ZZcUaNSxUm2j29msUS6nbnx28zW72FsNRNrtqedZlpZRrNaAqqLQWoUjizT42do0yt7k91roETh2RTaBVRJNbvFB3Jg1wmryjp7IvvlT2ZKfBK7yRF4WuNLDNpDuwyhEZQT0J09b90rRifmG8ERSl3iqw+JEiAK4zzGRduzoezIODuJUYV16dtZgxcFmCjNAeoQzq+6ja+nz6SaPig8jPif2NC3NzyEmjDDToUD+KH6Fefp33Gu+dVqxw/1b/kO1zOkMBIjUrRXr45GMTweyWGczOHudA6TMzk8Ojs54rM5Ij6HI+Kz+XL0Dca5DfFF4zzbs0uGounBodE2IC1VjNIbc2z9+VyQuZPz/d9wtLuALfJ70bcwDE3MSr+Fu/TN/LLjJ7S7VpwyKKdRKpm/StJQKOkR/VnEKcHqGCuCVgrj/MT8U9TuE5ONwylHHz2Q0XpjCkqYmr8PsTlQivnxe2RdG7UMYx1/Ao5cz2R6xZMkulphUTqLMkIgSframmI0aC+yphhNqqMU6DxoQbkaTBzjVNKOq1wt6xYmsHv+aPYqHMmXCl/jwOwJHJQ9gQOzx3Ng9ng2YUeUUVidOD98UgOaz0SYi4pBhwQuxaayE18PLubYmh+tdpyY+THHpr/Ptqk9iiWpqVJ9COIU4oU022XEfLQmap1lcWEe1mQxVtNgBhejsBIt30iKIcE6fC99LecEv+RHwW+5NHMHB3AaNW4QK3UTL+afSKZyfIdBgQqLfvCr57pCs5meTHWcoSm1jFnuXfIiNMpSlvqz6R8NZtNgcjE0f/WrlSTXq2IRKElKVYkuznAn3Y/VCu18LDGRyiMInvgY8ZLm8jEqgnIezsHj0b3kvZVAgcfiO7gsPoGfhMdwYeF4fpY/k0Y1ny5jmR/M4rXCE0TkErNWL8KghFIRihgjHlWF/nyt6rzVy7r6RxxX/UNOqDqfI2vPQBMg2gPxqdEBvgjtppPYJoFKvTaqIiJCQWKaVSPGefRTg7rZbBPNL2Wr+F5wBecGv+AH6Tv4UdUfOMm/gqEylijI8Ur8Eu2uEVMcASSBW0nY0KeFJNOIjIw3YmcOZrK/D9ubg1Y7tjX7sqWaQo1rQIuHLbrbdUeJYYAdy5e9M/lqcBpHVJ3KVzJn8pXMWXwlfRZHpM7kiNR32KfuGAZ6g0ErROletc7EIqGITZZI5fAkoFb6MdpsxGS9F0ekTud7mVu4MP0rTpALWM9uQGSyvFz1V553jxGLJO6EzqGUw+pkOrQ3SaVFIUooqBxWC1qEQKrQQlkkGUmEueiIWmlgM3ZGaXiLf9EubYQuzxvyDJHKsaXZhQYZ0MNe/sEo5+GUpppaUk5jpUCHrMQRoRxrjkCLCJZIWRbG03E4AklRpweiFEnnIAokZLzahGOrv8/JmQs4Mf0Tjq35EcfU/Ihja37MsTU/YnLmSxijEaWBxMPqk+AzEeZOkpl5VJ4ASz+poVr1We2oo5qM52GMxmlwKsNAfxQD80PxRfG2fZE2ae51IaESIkIXnbwUPoOoAv2iAQxOjcFIIkxFJW5xGVdNrRpIPzWEwW4Mo90EjvDPYIo9nFRcx1veVG6PriBv23EmRtkgGbb3QAFDvOFsHG1OQYW8Jv+ijRZejZ+nQI6JelvqaUgETM/HlkTDVkl3QUHliXVcNFMkYl6SogZRFOigQBYAv/ivpP38u1htadIreFu9nITQ+x7NejmL1CIWmjksVvNZTiNOhLTrS9508I/oLjpda1Hr+pDK5wKc0iiBQAL6ugaqVH1SzrqeGl1Pta6lRtWRUTVYFRNpwcdnPOuTxmcZS1ik5+GkNOPfM/MSHJbZ8Tus9JowccAEsyUBaShqdcppfJumXvWhrxrIAEYyVNZnB/9AjvbPpS4/lEa9kNvDS1liZxIXJ6d14u7QM7lPDKvAaodoAzqJUlTKrHYknUoyqkQprHFIMUy/hCgh9iBFX2qljgw1ZKgt/qyhStVQpWoJXD3OUBq3Fj2DVkcJdMWdPBM+wKO5O5gfvgUmwmBIuTS+DujPYNb1JrC/PpFTvJ8yvDAayDGt8DSWPFZBFRmM6OK6Ojlcj2U7KApzhyVHJ5bE7z2QYrBTUTtxqjQ0TWzYk1I7UhPWs8wsY66ayQrm84b7F2mXZid/LzwSl+e1Iem3FIP0OtSGgwHLG/FU8mSTjlz1HjmqEFrUCt7ST+KcZqAdRj/VF6c0WgxgEhdoXUO1aiCjG6jSddToPtTokqyrJy1VybpRRX969WHt6d/gMxHmWgzGpnGSJutpOn2HUslMc+nApYrrpRg8q/CsUCM1jE1NxMv3YYZ6hcXhLGwSkIyIQ6T0M/ndYmmKl/CWegHt0owyG1Mj1cUJikTbVZJMZPjioVUEJk+sLXX04YD0MYyzm5IzXbymH+Kx6C4KOotVEBevXR2FuGp2qjoUo4S37L9YHr/NC+GDKBwTvV1AVa2ukZd/ExSalMkgTmjJNZF1nclEI4nfcaKpJEO+LK10xR2AwlcBnioGF60hdHr+vSaWAu/mX6JVL8OLajglvpyL0n/iSvUQV3p3c7W5i6v8u7ko+B275Pen2hkWmJksCxfjkhm0D0ZiYpXFkayT0u61rCpnXFGzV0XfZUXKevg4DCl2TB2A1tXkVBPPZn9P6ErD5u4Jlro4Ryg5Xui8m5yXpdrUsnFqNwJqyucowDiDpQrBA+fwgCpqmODtxP7qeEQi5qXf5rboYjqkBSeWWBdw/0bT6Dnq+lCK9S+IDdopnIrxI69o401caJUkowpB47TDKUtAMslfvglJ/fCkgNUhoJFyFGGpXhTzQRUDdJyXLHrWiyYo4tHklnJH12Xcos9nqvydkAIimtiAKI01HqIcvtQyTI9itNqIWIU0efPRWJT16eM14BEQScTKbBMxa9rMQYiI6Yo7sFiMKKpMDcVqDwhWAySuvgYYoUYzko3oNJ1M7/oXMwovs4IlDGQgw9V4FEHiGAEfqeCUBgsDzRiGBRsizvFa4TlWxo3EOkK0oEqryyVXFEtZWBy+zyLvfYzA6NSG9FU1RMWF8UCTipOIYKeTzi0Z5SX1XqnkiEweTbIAV2KeWbM8Pg5rX2P/A0SBKvrNVjlFFRST7nYY8NF4eGAUGIVWPlO8I6mjhhbVzF3Rz5mr3iGMcljVhROIRbAqSxQXWMps7sndwopgKWlVza76EKpVQ7lsE6GeTG45pZJV+iTAI4UChrIuh6VOoX84mKwXcV90M/Psm+RMJybqZgcsFowoH0/5jNYT6eP60eY1cn/hDpr0AqrtCDYMJlKFX1zHTpWHUxoNOiSjDeubrXDGZ1nNQt63b2DDPFkd4SyIKIyzFHQni91cFnlzMJJhlBpLSjI40SAO32bQShPpYsUpyczSEYOlC2djQie0uRYez99FqNsYKuPYLtibDdmO9f1NGK+3Yqy/FeuazdnQbsUO/v54ti+tXhNPxveTdZ2IJLMQFDvR7mjl40sVzliMCCn6FE1Jqw5F4mJoUGAMCoNTeYazGRMK25Mn4nnvYZ6Xv5GPQiLaiK3FUiCWmNgW6JRmXoge5bngcYx4TO7agcHxiKRhKIdT4IrBVx7FYB0P0BqlLVXUsn/6aLYItyc2Ea/7z/Nk/EeyqgVlddFneu0QJcm8iit5dCQVTilQLnke7TROJWLft4m9VKkQz2WSYC+le9HMLaLAsw6dLCiCRnAiyUShGIzE+NajYKLEF93pZHZVTNHDxCRCP046jmQhrjWbfew5BupBqCBElOMZ/sps9y4uTvLdizw8J3g2Q2yyZFUHS9QihBQD7Bi0GJSO6cu61MoArOriNfN3JBcisYVQIE4W2cqrAm3SwivRo0Qmpr7Ql2FmVCIudZzMCTkpen35aKVI635sY/bAIDxn7uYf6l6cFJjATlTrWrQzRQOgSqKolSQRob1oHlYn7tJVOs2e3hFUhwNoq1rAbwuX0eJWEMdFJdE6nIuxLsLaPM12Gb+114M4+oR1bM1+BLoOX3wEixEIdRKwJpLCFOMIesq6FOnEeUMnXQA9V4P8mKxZqp8CyiVrWifRWIldeG3QotmcLdlWHY5WNbzjPcktXefyjvoXsYWYGCuWOFbMVq/xq+yPed77E0pHTAx3Yftgr2QI6wwiptirJMOonjjlYZVmI70N+5qvo+MMS6rmcXf+ViKXRbvEz9cJWAziSOyDFBigRzLGrU+sOnkh9Xc6vA421zvSV4YT4VCSVDJXXKFRO7DFJZ+2lB1oyPehUzdxp72W1+2/ENuJM1kiV6CTVt6LXueXXZfQaVZS7xrY2t8DVdRaHEKsQvI2RllHVrXRoZtXO9q9JgrSTpfqwOmQefIWM1NvoLXPJLUDtbZ/2Xa/CoWoFJsE2zHIjUQpeIWHWapmJzF+yZi/F1Sy6JhLhHQS4/jRiHjUUM9+wdcYUViPVtr5ReFi/ia/JufyRKpA6CCWHM1qKfdHv+HW/AV0mRyDCsPYp/Z4xAdjvbJQleIkW0nfK6dVFIt1aihfTp9J3/wAItPJPfZm5tv3i1pZLzOOvVHUJmNtCU2I0E2AiCqH43QnNo7IczidBKWvmfdJ1mpJ7MmiwKpEk0/yPQZVQKmIWAkduplYWsiaRjpMU3LoJtp1M+26iQ7TTKduTsw7SvequWo0aZNh79TXUNrjveBNfpm7iNfk70TSRmS6yKtOOnUzi+wsfp+7njnedDznsZ2/F55KY9D0VQNZJx6LOMtz/mPc7l3DEm8WWa+DWEWEqouVdj735m/gjeBZFJqJem/qGIhPsuxG8pyWSFtiZZMljsVjI38rqqI6FgbzeTV4jipq2Da9L7EyaImTCVMd41Ri2tGuZP5YHU8sKIURwwS2YTu3H+IUT6bu5froTN6Xl+jQywl1FzGwUrXzppvGNYVTeMd7nDwxu3qHsKnZGt+mQBI30VjFSXS2igFbtKH3TP3TY81a9Clgi2H32iVz1MnfH41SKZzvc4J/DrtHB2OU4R3zL34YHst50eHcEp7Fr8Oz+XH0Vc4tHMmL3sNYE7Fpbme+kb6IjKrDJ8Cq5E1FkQiaXjqTZKCkqaGOPYIvs2FhEsoaXgz+znPur3SZjuQ+KmnoWgNK0Nonjc/O+hAyroo200HKU+wW7IunFEZprEqmnJJ1jZO/LRrP+oz2x/Gl6GtkXDXzvDe43B3FudlDuLRwEtdmv8nZXQfw4+go5tS8Q22+P1Ps4WzAVsTaoZTCFVfcyziP6amX+G7+AL7RuTPf6NyZUzt35hudu3BqdhdOyO/M2a0H8WrX33m/MJUu3Yof17K1t0fi5tkTJRgj1FDL7ql9CRw0efN5K55KrApFrVetsUxs4pZoEV2MYCwuQfBR+EqhdcBEvTuHp85gQDiKFWYBv+YHfCd7EFdH3+C38QVcnz+bs3OH8HsuZHl6LvW2Pyd4l7GxbEeVVIGhGLafeArp4try3UcQ2nn4NsApYQO9Lfu4Y0jbgJVmEXe7X9KklyUBSmtBMtqyieB1ktQtKUe19SY30U5hioI5GeGtaVcWEvNKEuiULCWxyraqMc5DOZip3+Db2T05Ib873+zaJTk6dy0eO/PNrl05NbsL32nbh/m8jSrPQ6yOIsKQZi/9dbaN9iYTp5kRPMVF7mi+ld+Ly7On8PP273FJ9ljODQ/hifSdZFyKXbOHsJm/XTGqEmpcDV9OfYOhdmOyKss99kbObT+Mq3Lf4pquM/lx9hi+UTiAv5qbiXTEuvnN2D99CmlXUx4xaDF4zsegUVqAGKUcI814xoab4RRYCRmqxzFSjSWwdTivgF/0dVfF0ZJTttfJRafyKGfwXIY+qh9H1XyXre3eeGJ50fs754ZHclXH97gtfzm3hj/gqq5juCJ3KG+Yf+K5FDvYvTnAP41aSUadpSLWzku80pAkylpFveb1p8Xa1dj/EK0UgU2RCWtI2XTvNbwXSgXj+Ybjqy7gCL7HgMJYlI54R7/Co/yOB/XtTDPPEZosDYUR7BOfytm1N9GfIURKEPGKjU3hxwHpsIZUWNszKQC84oREXxnNEVXfZFDXCMIoywOdt9EkS1EO/DhFVaEOP65KFhqxBq2EjbydGZQfT59cAyM6xzFKrQ+SSkYiCoK4ikxYl/TkuCTrHXgqw5drz+Cg6Bs0hEPJ+ZbZ5k2eDO7hqeB+ZvnT6Ao6GJAdxkHmZPZNn0LKZFCYJMRegsR9UTJ4hYAW08ji9BwWp+ewJD2HxenZLAtmssIspclbxEL1Ls8XnqYqTjM2O4H1zJbokp2+GyrxOsYqn0myJw354YjzeC3/Lwq2PYkBcGtWVEFhbEBVoQ+pqAalkg78o1AumQPwlGMnczDfrLmObXN7Y2LNnPQ7vOge5JHCr3hK381yM4equB+bxlvzg9Rv2FXtQ+iDITERgMaLAzJhNVX52jVdfhQ4E+OLwlc+e9ccx8jOzREV8Gb8LK/nn0TsmgK2V4oaXirOUFXog+dSyeYkiUhBetHwU3GaTKEGP86gxEd62ZhAIfjOkI5qyIQ1pCMPVzQfKUnh2Rq8uJouE7PEX0irWkajP5clwRyWpmazJDWbpak5LA1ms1IvYqVZiKOomfdaHAbjNFX044TMBexjj6NPOAARzTw1mydS9/KP1B+Zpp6iXa+gf244U+RIjulzLn1c/+SJFaBSrKe25dv+lWyYnUhafJZkZvFU+i4errqVV9MPk9fNZGyGiV27c07VjYxSI4p27MRzzLeGTKGGqkJNsb14CB5pSbNLcCC1UT31uYFMcLuQJo2nBREfLYqqfB3psBY/TiWjs16EqRDgKK6T5Hz6qhF8u+oajot+TP+uERRMlteCv/KwuY4Hzc28lnqa5nQL/e16HOt+wDcyl9OgB6JdAKpoZnMeqbiaqkItqagK7Twcibnss+IzWQK3Q5qZGb1KQToZpMcw2t8QsxYzz4nXhEIV130IXY4m5vMurzEn/x5trECcplr6sU5mHOP0JgxlHdKmNpmsVMlQW4uQk05mxdNoV03Uy2A2DLYqTlpIN2Ej5ZD1vOrirfBFsqod3/mMDTajWlUzJ3qbDtdIPzWSdYON8SWDU5YCOWaFb9AhjfRRA1gvmEhANUoUocozI3qBNhrpr0Yw1kzEI41K9C+UKPK2g/m8yyz3OgvCObSplSgUDa4fozLrMU42ZbC3HhlVgy4KSCVCThWYFU5jJUsRnU+00Z4uWpJo0T4p+uvBtNgVRORoYCjjggl4kix61hNJ9GxCaeed8FW6aKOWesb7E0nrmiSwpkddDckzN57OcplDWurYONiWKmpWP6lXkgkmEcAprIpop4lZ9k3mxDNojBaQ021USQ1D/XUZqzdmrN6AtOmHL0FRYCemvFhClthZLJJZ+C5g89QUTDKFWBSTyYSlkHgKWRUxK5rGChZhrGGQGcZIfzwBq2+q0CuSTHItjecxV97GiwPW8zajwR/YbcST1DHB0WU7eNe+SIEsQxnDqGCDxLbdQ6A7YrK08l7hdbroZKAexnre5mhlKEgnc+K3aJalxCq5fzJZXhoQFAtFJMkXsRjns0l6B2roU3ThW73gJBEGIIpYxYSug0XuPeaod5mTm0GHaiVSIX3ivoxIr8v6eiIj9TjSpg7jfEQn76hcYnKIKNDslrIofp+346l0RC1ERHgmw0g1iuHBGEZ6m9CgBpCSAFQS5OWIaY6WMdu+BUYz3tucetUPxBCrPC12GbPtGzg0o81GDNajim1B0+FW8o59FlGwntmUAXoE9BLjISSBZcmieAqrBUTI08Fi3meBncmcrmlkaUPwqFZ9GV63DhtH2zLQDCNQiUJa0sqdEgrSyfTwZbpoZZgewyh/AzxSq0ZonwGfiTCPnUvMAcoVV/9LJjX+XZw4BEtcXP8kdhFK2eIqdgGeTuy0awizou9osoRoooV6RRe2DyOWuKhFgyIJW04mpSxJJGKAKRaWJcYRJbYyTHHRpsRLASkunFR0w9J4JHaaVVhJJi9jFxXfLy6acTw85Sc7phCssQqdE3DYZJaTOBktrGEnXNVZlX+qZIlVjZ9MIfS8pHiaKEnC5xEoLmKl8TAEq/eDpUtc0iCTJU11EgzS413XBofDEoHTWBtiVaEYYGLwtI/RHklO9tySrNQJ2eJ2dY6AzOrn9IKTuKhFJ5mhMMVO86NJcijZ1lBL0bNBmTVs4aWmZlUSjq7x0FKsIz2ySIprB6FKLok6EcIKLGExLpTikskfgUrqZJJWadXGnietTlLmFis2mQCUGIFy/itl8DAf6Nu9atUjSxTnCVUyajJiUMZgSBwPSkF94APJxCNIMY8EhcEjAFE4J8mieiqJRtY90hcRIpVP2qYkTwcf/a4ASAxoYmJClcfZCEuy3opHikDSSSR4L6bFVe/qEKKibEja/2fJZyLMyxp2yfVIJW55/zZSHDQpwUqy2KZIhFElwVnUSXRPCVOcrOv+pmvRmYgUo0ZLHyhAErOJJKpM+T0kqYrdElllTUuERMmOmpzT8/3FuiSoo6itO3GIMkn/X1Sweov6dCSubAjFibckMKQ75SIuPrcuPYYqftjtR2+ULbXFhgYq6TR6oVTWq/JtzXddGwTBCmgUTmJiFaIlhSKZh8BJr9ufJReXBtfJ5GHPDrA3klFBqfxU8q9nZn8YxR2eShO+yaWlutBTUhcbQinYpJdkknHKqr9Wr0+rvu1t/qcniYdPqQGotar7JMoqokqLcAmik5JUJAEyutdbJbVFutUBKxGJ+lOMqhBVzhNdXK62tG9aojWvqjtAstwvxXxTycJppRHImsl3n5j/gPrRG1Jso4kdC4iKxaRBG5wI3hpKyar6UpRw3VqLKreAtX2E/5TPRJiXKZXux8YVd8gpzhJLsaC733dVHna7qrRCQ/Ll2j5CoiWUbpg0CFVKmzXT+SBW3cWtauw9T5J41afFWXBRrthYks2nE+1lTUG9WpUpnd/9nDVSW3X/0nW9RQWuwVq8d7koir/8J0UussrxSDQoV/JESho1qF7culY1sIS1Sz0RjqvOXburuvGBedNLDkjp5bp/1fPC4g3Lw/Re7gNrlHVvlIRycn3iP/ORrUASj4ykEIuHTq5P8t8V6+LqI6NEm+52b0kWXyunKolfV/nly0qBrF63e83PUpofgqP4fB+Wt2uSvJUgYjE4CsVLdDGoTxXH/Ktfk5RJ+e69PPMHldqnwWcizJMicN1+WxtdaU1KbaD8lwhKC1LSTlQitNf0zlg1CbVK9H30EwjxKpOFKrmRUa6Mrly8Uny3YsdSPD8hWUF71XkqWSmt+G2J1ecSi2oRxYasks9W6WbdcIn22f2LNX1r16yEiQbdXWtd487dSO7XXeB1/787pTcsdWGr8ujfR8QV75Vskt19YjFhTe25vH5Nt8/WzO3eKAqK8iuuheAos0qL/qB86U7yjMkVH5z/q+pPgi3awnqWbc+/V0e6Pd2q2tOjwvSClOrgqmFo8nm3yLneOoVVZ5YeLdGkE3NR4mWkoDiqTe6xqkxX5XepxtEtTxOlrHROqZxXLyOLLd931bN9+LtC0o6cTkbFisQzRSj5qpfitHu2o4RV71vaaaw7a5H2J8RnIswrVKhQocKny9qqHhUqVKhQ4b+YijCvUKFChS8AFWFeoUKFCl8AKsK8QoUKFb4AVIR5hQoVKnwBqAjzChUqVPgCUBHmFSpUqPAFoCLMK1SoUOELQCVoqMKnxKoox6SG6W7RmkkMaimyj+JaG5RX9Cid5RC8JKKvFI1YoUKFXqkI8wqfCqtXqiQketVAULqdoXv8veqMUkB9Kdi7Z+h2hQoVVlER5hU+YZKVQAQFzqHEEhbyLF66jMWLlxJGMeusO5ahw4bheRolDpE42dS6pYWFixazcmULQSrNmPXGMbB/PzxDsglEWbRXqFChJxVhXuETJlmQTADCHIvnzuLOP9/H4088wfuz51EILZO33YGzz/0Bk7fYGCMF2lYu5x//eIZ77r2Xd2a8x7LljaSraths4iS+8a0z2GnHbUgZi6f9ijCvUOEDqAjzCp8oyXrUQhQWmPX2NC758fk89M+pxJHF2ZhQDF6qlgOO+Bq33HAFueYF3HT9ddx2x5/I5fM4gbBQIHYaz6TYcIutuPNPd7L+8L54Zs1dYypUqJBQMUJW+EQRARdFvDf9VU46+RQeePwFRozdgKOOOY7NNxyD8TQu6mLm3AUsXrqEyy7+MTf84vfUDBzO1449kdNO/ybrjxyCpzVx1MU7017jlbdn4ZyqCPIKFT6EijCv8ImilFCIIl785xO8P2cJ2+12IL+9406uu/YqTj7paNKBQUlMrmUZN195Bb/78+Nss8fB/P7O33H1FZfxkx+dz/e+/Q2qgkRwiwjtbW2rdkuqUKFCr1SEeYVPFhHSqQyHHP5VfnLJZVx73c/YaOP18bUlyneCOJzA/Pfe4Y933sWk3Q7gumuvZMtNNiJI+ZiUz4gRw6jyDUol2+hpU6mmFSp8FJVWUuETpbTDS9XAMRx73NGMHVOPNiE2zvPu2+9g4xglDhs7Bm4wmcsuOo91htXhacEoEFG0tHeQDSNEBGMMgwYNWmNHoQoVKqxORZhX+GRRBuUZAs8jSPkEXoCWFGFHjpemzSWyGotPTd9+fOecs9hk3Bh8zysHDRF2sWD2DPLOI1AGr3YIo4f2Q0xFmFeo8GFUhHmFT4VV05XJJr5LFi+ksakFax3GD9hiq53Za5dt0EYX92g2OAWFbCdvvf0ucRSijGHc+A0Z0LceXdHMK1T4UCrCvMKnjpKIOe/PoKWjEwVU1TUwZc/9GNQns2qDYEns441LFjJzzkIQi2jDRptsTF11Gt0jQrRChQqrUxHmFT51bJznrbdeIxtGKFHU9R3KdttvQaA1GodD0AIilrenTWPxksbkM89nw403psrXydosFSpU+EAqwrzCp4yQ7ergpZdeILQWrTRDhq3D6FH9cKLQzuIUuNgSxyFvv/02K1vaEeWhPI+NN90EX2twa67fUqFChVVUhHmFTxURoaN5Ge9OX0iIQbw0G4wfRnWqCq0saB+jNPgW19nJO2/OIO80Go/UkA0YM6oGi0EZh4hFxCEi5aNChQoJFWFe4VPEAZa5773Lyq4QnMNLpVhn7AQC35QXyVUiOKVobVrK+/PnEzmH9n0mTd6CIXV98JzDKcEpD6c0KFBKVdwVK1ToRkWYV/iUcDgXE9uI6W+/RXshBiv06TeI9cePxzcKrXV5US4nwvJ5s2jt7MIBxkszeYuJVPs+QszKJcuZNu1dOrMhcUUrr1BhDSrCvMKnQrL9hCOfz/L2jLeIrAWgvmEg48YNJRHjiWquihWxbdki8oUIhcJPZRgzeiS+ghVLl3DuGWdy+JFH8cQ/nya2bpUXTIUKFaAizD9PeggjKRkdkvXAnUhihihroYK4ZEVCRBLbsbOlP4u7+fRy388cAQGHw4ki19rCa69NR5xFG8PIseMZ1r8PRiWe6MkPhcIR+36xSgZE+SxTn3qch/56H6eecgr3/v1pvEwV9X0a8FQSZep6Jl2hwv8wFWH+ubG6vbckgkUczsbYOCKf7aKjo52Ojg7a2zvoyubI5UPCKMZZQSQxUSTXlu7weduRSyJWgROWLpjNvIWNxE5QxmPTiROozqSLOw8l/4PCoRg9fjP69e+H1habb+dPv/oFJ33jNB7714uM3nhzrr3mSiZN3BSjIPFKr1ChQonKeuafK4kpgqJibq2lq7ODZUuX8O6MGSxYtISVLS1EUYw2HpmqKupq6+jXvz8jR45i8OAh9OlbR11NNcb8d+zEI8QgBnDEYYEn/vZ7vvXdi2gPHX6qmsuuvZlD9t2ZdI/Fs0KxSFcbN910HTfd8kvaW7swXoBX158dd9md73/3u4wbM4zAAMqhtYdDV7SRLyAikiyyVvxZYe2oCPPPFYdzFsERZfO88cY0fv3rX/P4E0/Q1NRMPnZ4OpkodDbGWYcVwXgBtX360NDQj+122o2LL/oBgwc0lIX559kAks0pNKgIZ4Vs61KWNnaRBzydYtCQQdTXVhfNLKuwCFqEro6VzJgxgxkzZxNU1bHe+I0ZM3oUfTJ+MaTfJd4sxYnTT2pfUBHBObda3mn9ydy7wtrjnCuXQ6ksKuWwdlSE+edEyQ7uJKSzs4Nf3XAjP7/5FhYtacRpQ11DX9YbvyE7bLsNQwb0ZdmShTz77L+YPv1dOrNZHBq0x5CRG/PPfz7E6BEDSbbKTOzJnxeCJKH5qoB1Pp7EgCLWgpYAJTmUTqFUjwYq4JSgrAWBSGuUToKKABwapXV5zZfEMCOAWf0+HwMRwcYxnZ2dtHd0MGDAAFKpVEWIfAp8lLbtnCUKIxpXrKCmpoaamho8z/vQayokVIT554CIoKzgjCXOt3Db9ddy7qXX09lRQKfTTN5ud84685vsscPWZDKZ8pCzeeUibrrwUn7269vpyls8DZtN+QoP/uU2+tZoFKa8BG2FD0aIihPMGhw0LV3Ek39/jEceeoh3luS4/GdXscvWG+Arv+el/w+IiuvcGEAhSki6wM+KbnMmqGQOSAoo5RHl87R2dlHdp1+yXr04RGu0KFAk/k02z3tvvMQZ3/sBmfrB7LPvAey5x+4MGtwfz1hwHloX01AK9Ql05l8UKqrH54BCgY4QJzz3z79z9bW/INvVhTY+E7fZlWtuvIr9d9qpLMi11hhj6NswmONPPZUdJm2MVuBMFZtstCEpP2m4yZ0/y4b7/w1JTFtiUA7i1mYeue93fPmIQznl22fx8FNPk0qlyHZ0gfv/KiR8BI0ol4xnPmOXH4dO0u9WDyW2zJ35DpddfBFHfu0UZrw3O1mdQalimaxCUDQ2tYBY/vX0P/j2t07ly0d8hbvufoTm9hgpjehUaW6mQhmp8NnjnERxXjralsjxX95VqryUpFHSMGwduf2Bp6SjUBCJop5XibVWOluWy3UXfEvSxkhQPUiuue0eyYaxxBKJFSvOuZ6XVRARESfWRWJdQcK4TZYvmSEXff9EGdV/oAR+vaw7fpJcc8MtMmvBcmnPhWJd3PMG/9VYa8VaK85aiW0skUv+luizrQ+RE4mdldhGEhVy0rJiudx+y3UyafNNpCZTLbUNY+Sxf70sBevEOiuxi0WcExErIk6ci6SQbZUl86fLr39+tUzYYJxUp6ukof9gOen0c2XO4hWSjfISWyvO2Z7J/09T0cw/B0SBQ7Hw/bd5Yeo0QrFEymPipO2YNHFDMp6C3rZKE/DTASNGrkdtVQ39B/Rlk402wBQDaESSUJ0KH4RDxLFs0Tx+/MNzue7mP9HY1cXeBxzKbbf9kmOPP4qRw+qpSRWVxv9niAjNyxcxd/Zs5sxdSEtbF+4zfhGNRbmYbFsrTz3+d046/ljOOf9HvPbGDLK5mMhanKhy5C8U4yZKvyuFn65mwNB1OfyoY/j17TdwyEG7E+Va+f1vbuVbZ/yAuYtbCJ3rqdT/z9OLxKjwWSDiWDR3PouWthG7GGsMIwePol99FSjTPQqojNIK46eZtMMUrr72Z1xx6YVsusE6GK1Q6Iq9/ANI5potoOloWcGtN/ycv9z9GO2hYsrBX+Onl57PNlttSnXax1eJh0zvtthk0nr1oyc9v+/tnE+SVWnYOM/f7v4d3zjlFE7/9tk8NfUt0J9++kJRkXCWQq6Ld956nSsvu4TvnHEGjzzyGC3NbasCvFS4ylQCaDFl76Tkfw3KIMYjqK5n08235dKf/pQvH/wlVJzn8Ufv46prb6WxuQNRiWtvMbyu1zbzv0RFmH8OJHqJItcVkS/VcuewgJOi73QvGpVSCmPSDFt3HF899hiOPPwQBtQFGG3QaLTSlVn/XnAiIJYwCvnbn//I7+78C535mOHrbM65536P9caMIOUpAuWhVJB0pv+vcCilUS7PorkzeP6553n+5VdYuCJf1n8/HaQYfSyIi2luXMw9f7ydk447lZtu/Q0toWXTrXdgeH0fUCXtO0YwaEls+qoY+Faa8ynN+3iQqCdeFYOGjORHP/gB20wcjy20cdfvf8l9f3uC9nyEFYeTKBHkFWFe4TOn2AASY4ugBLRzvD9/Ls1N7SgXYXu67nWj5IPb3Re3wgejFTilaJz/LrfcchuLV2SpqR3C+RdewBbrD8OZtZ0lXCVwVh096fl9b+d8SvRM6lMXbkmCCoeyEVdfdgnnnf0T3p23kN0P+Bp3/PEB/nDnbXzl0L0JtENhi5OWPR/0gxGlwc8wbJ0NOOeMUxlYl6LQ2sgNN97A6+/MIXKASuIr/tfF2f/2239eqGQ4mU6n8D2NURqlhDdffpa///0fdMRC/BHypSLI1x4RIcxnueVnV/DmrEVgNFvt9CW+tOtmeNr/yEZQCiiy1mKtLQe2dPfqLf3d/bzSuZ8d3epEskTOZ4JSGpRiw402ZszmW/Gzm3/FNddcws5bTWB4n0FMmrQpnjGgHMjauXsqpdAqCQlTSqNMiu332IODdtmGtAfzZ03jj3+4h868K3rOyP/84msfVY8rfAqIJPbv9ddfj9EjR6Al2Twt37KIG264ibv//jQ27nlVhY9LrBzL577Lw489RVchJlPfjyO/ciD9azLESmGc1/OS1XDOsXz5ct5+6x1mTH+X9vZOQK+m+Cql6Orq4v33Z/PO29NZMH8h1sqawVFfKARV9A8X43Pw4V/lD7+9gyMPnMLgPimUVoSBwUsHSNl0tbb5kYxqNA7lHEqEVE1/vnriMQytSaMKXfzzH39n/vxlScQxgqgkwOx/lbXN2QqfJAq0VgxZZ2MO2W93/JRJBp7WsWTWNH78vXO482+PsjKbR6IIsZbYJfbJ/3akuMrjZ6uRfjhGIl56+u/MW9KBk5j1N9qUTSZuhKcNHmCNWi1vpTitV4jzrFiygOt+ciEH7HsA++53EAccsB9nnPVD3l+wiFigYPN0djTz4G/u4Mv77cP+++/DQQcczL4HHsA3v38J85d1Egk4F3fTlD+tgiwJQIUosBrcp5YW5fQUoLVHVW0DQwf3JxWkMSaF0RpPq2T+RygK3X9X5Gi0NmhtcMpnnU23YPQ6Q0Apli9+n/v+8QKxjUEUjg/vlL/o/Ls5W+ETIBkIa3R1DV89/gS23HR9tO9hlUdsLYvnvsc5p36dC354AbMaVxI6hXLFhb//H1ES7J/WsXYINtfJQ48+RT5SGJ1hvQ0nMGTQQCjtWNTjCoVgowJL503nG6cdzYXXXseM996icdl85s9fxL3338Nf7n2YMM6Rb2rigjO+wynnnMnTr7zKvDnzWLBwHrNmvM1dt9/KVTfcRFcYFUXq2j7zf8Kqt/ksUuvOKtNfzxz9hFCKvvV9mThxQ6p8n87ONv712CN0dsVYZdFrXSe+mFTC+T8nRByREojzvPLM45x59g958+33KESJsVNpIV3dwGaTt+H8H53HDltuQVXKRxXtgv+t9nIRYdq0afztb3/7UO1cPmCNju6fl34vVdHS53V1dRx11FH069ev13t0R5xj4XvPcchBX+X1WcsxmVouuemXnPzV/akxDqW8VUJPABGcC3l3+jTO/95ZPPfyHLbabU/2331L7rz9lzz/2kyU53PsKd/lB2ceyZXnfJ97Hn2W8dtuzYF77kbL0vn85rd/ZMGyRnzxGbTBJvz90b8xdmg/PFXSTOUTFHhS9J83xIUWLjvvDK78+V9wDUP50eW3ctZRO2M+R++cKMzz2J9/wZdPPJd83hLUDufeR/7K7ltvhNYO4zxEJ944H4UVh7E5HvrzrZx6+k9Y1N7BqDGbcc9f72eT8QMw1kf3Fp/xv0LPKKIKnz5ORKyzYl0sBWclzLfIS88+KvvuvoP0rc6Ip4wo5YkiEOMFMn7i9vKXB5+Q1o7OJMrvvzjKM4oi+d3vfifV1dXi+/6ncqyzzjoyY8aMJMLxI7BxJE8+8EsZUJcWo7TUDB0vDzz3uuRsLM6GSWm4WKzE4pwTF1uJ8u3yh9/eJOuOHCHHfP08eW/uUsl2NMsPzjxRUpm0BKkaOeK4M+Sc75wqIwcMlONO+7a8PXuB5LNd0r5yoXzv1GMkSAcSKCODRo+VqTPnSsFFxSjHYgX4xHAiEotzImFupVz47a9JbSot1YPXkcvv+EcSYfk5EhZy8uDvrpGqdEo0nqRrR8vD/3pTwthK7CKRWNY6kjN2Vlycl/defVwmjBosWnvS0G+E/PaRqZK3kVi7ZtT0/xL/w93Y54sgaCco0RDUssXW23PjTTdx4tePYnC/OgIjGG1xMcye9gLf+va3eOSJp8nlw+KWbMldoOS2kEQ3WmexxeVyRYpnikOKXhaxLXpilO/yYTGjpVSK6Xwgpbu5xDwqQhRFxHH8qRzW2rUwtSTfOXHMn7+IrrxFo2kYMJKB/eqTDS5KWv1qSrLgeR5TpuzDjy/9KT/+6bdZd0RffOMwYlFYlBOefvJR7vrDX9jl0KO44IffZ/zIQfhBFam6eoYP7EcKh1MWjUEbr2iTLz7vWivlpfxPyq+nmUlKvtUlX+9iGoICEZRYHGteUzqcSLJjlXx0TfhvQAmgNQ39hzJoQAMaTSEsMG3GTMR5//MBcxVh/jmgIBn6Gg9fg68MotKMWHc85114Eddd/zPWX2c4xoAyEdrFNM6bzQU/vZx33l9AKHESLEGy4z0OnMuT7WpmzqyZTH1xKu/OmkNnGGJdRCHfRfOSObz5+iu8+MprzFu6gq7IErsQCPkgHwBxFokdVmKsFMoueeWjuHVd8rtFxCII1dXVjBw5klGjRn0qx9ChQz9widpEoNlk9T4HYgssmTsb5yJiNCNGDaVvTRW+MqC8UmmgMYnN1xgwGfoOGsnhRxzGqAH90coQhTkaF80D5xM7YcXSRkZvui3nfP+7DOo/AGU0YgTlHL4OgACnAlKZQfStqsYIxbSK0YofQdIJW8RBZLtoW7aM5cuWsazbsXz5cpYtb2TZsiaWL13CkmWNtHbmCREkDsm2LmbJ0iWrzi3+XL5sOY1Ll7J0WRONS5ewoqUDa5NYyrV9vs8DLcm8UVBdS/3A/qAtsbPMeXsuIcnSy//LVGzm/yUkxeBQYokKed5843W+f9Z3eebl17FWYQWCTDWnfvf7/OTc71CdTqFUsvmxOEVz4xKuvfJy7rnvryxvaad++Ciuuf63fGnSIB74y31cd/11vLewkVg06260BVdf/3O23XQ0vgahtEtRj2dyBbKdWUIHKIfqZZW60vZtAjg/Q23Kx8UR2Wy2V2H7SaCUorq6Gq31GmmIgCq5qDlDGLXw3a8dwW33/YPQGvb9+je44YofM6J/w2rX9UQQnDi0KBSWZfPe4cB99uPlWU2IgyFjxnHTLbfwpV0m4SmXWMK1Jsp3cdF3TuPK2/6MVQGbbX8QD99/C31rfIzW5S01Pko9dwhKBOUU+a5lnHrksby+aFkSzdqTYtSwdRHz5s+lK5fDI0XdoIEM7d9njbQEjRGLw8cYzVZTDubqC88knfHLe7P2vObj8knazMVZ0I58x0pOP+l47rj7UZyqZsJ2B/GPh2+lIeWj9Cfz3P8v6Wl3qfB5Ulw9zkViw5y8NfVJ2XzDdcUzKfGVEqNTMnnXg2XmghUSWxErkTiXkxVLZsnXv3KYbLjBxnLEEV+WzcaOknRVHzn5h9fKjT/9sWy4/vpy5NHHylcO3UcGNNRKVXUfOfnCm6UrX5BQRKysaVd1zkl763I59+wzZK8v7SN77jVF9txjD9ljjWOK7LHHFNlzzz3luDN/LIuXN/e81edALOKsiLXS1blEjtltG0lrIxpPvvatc2V5a3vPCz4UF+XltX8+IP1qq8RDiZ/uI0edcYGs7CokaUkk4iJxLpK2pjny5b23Ec9o8avr5Vs/uVk6CrFYG4sVJ07iVbbzD8FK0ZYcO8m2zJcpm64vnjGilOpxaFHKE095YpQSrbUopSRQvuClxSv+3f1AF89VvgRBjex39FnS1tElkSs92ydn1P8kbeYiTqyEku9qlJO+ur94RovxamWT7b4qzdmCWPvJPff/Rz66O6zwGaISy5fSKN9nvQmb8Y0Tv0ptCmI8HMKyhctY3tKRmBBEI6LpKuRp6cxz+dU/4/JLL2KrrTbGRVlefeYRfnXXPXzr+xdw7Q038bOrLmPyJmPBWeYtWIpEYVlP7A3nQt59721eeP5Fpj7/IlOnTl3jeOGFF3nxhZd44fmpvPnuPKL4g4w2nyWlN5Ik6pBkBC5a4aS4Vsu/gcIx4+03kThClMeQ4aPYf989qckYHAYhiYBUCM2L5jN99iIQQyZdzaStNiHl6+J2emqtTQHlNVWUQoIUE7belilTprDHHnuUjz333JM999yDPfecwm6778LuU3Zi7LA+aBUgqQxjN9yc3fZMrtlzzz1X/ZwyhT2mTGH3PXZn9913YLONxyS7+fR8iP8ySqVmiyY+RWJHV/9meX5h6SndK3wKuEisdRJKKM46EVsQcaE4F4pzH6SZOInigsyZ8axsNGqYaOOJ1r4MHD5O7nnmNZE4lLio7UVhThqXN0oum5Vlc9+Qr+y5nWgdSFW/kXLJ9b+U9o6suDiW1qZ5ctReu0hNdY0c9/3LpT2fl1jiD0w/DHMy/Z235IUXnpcXnn9epk6dKs8Xf77wwgsydepUmTr1BXn+hRfl+akvybTpMyWbK/S80WeLExHnxLlYxOUl27lMjt1tO/GNEa19OepbP5Bla6WZuyRvJZKoa4WcfcJhkkkFgg5k+y8dK3OWLJPISqJpOyfWFcSFodz3yytkaP8GMSojQ8dtLq++t6io5358rdHaSNpbW6SpqUlWrFix2tG0olGaVyyXphVNsmzxbDn3G1+W6iAt1YNGy8W3/FUamxrXuCa5boWsaGqS5uZmaW3vTDx5/oNn/CDCfFYe+t3VUpUJRGMkXTvy42vmLhmN5job5YSv7CfGGAlMrWyxzZHSmM2tlXfTF5mKZv6ZkSxGFFtLbMEWnVBUd6+K1VAopRk0eDD9+w9AF/2ttZcik04liwsVtTzP+PTr15/A1zQtXc6MWbMxgccOO+/FVw4/mExVCqWhY+UK5i1cjNJpxq83DuOVtkPuLX0wxmfc+hswadIkJm01icmTJ7HVVlsxefJkJk2alPycvCWTJ23BpEmbsdH6Y0inPu8ovJKWlrxToi8nNnApRtHKWmrHyb2EzraVvDtzNpF1aD/FhhtvTEN9XcmynaQogsQ5/jV1Kp2deZSnGDhsHQYNbCg/ycdFa4+auj707duXfv36rX707Uvfvn1p6NuPvg0NZNIptAKUJpWppm/P84tH3+K1DQ0N1NVUFYOnPv4zrh2fhAadbDHX/Uld8e9P4u7/n6kI888AQYPELJ37Pvfffz8PP/IErZ3JPpRFv4VeSSps0X2saBDxUnXUVqeTPR6LQ/ukRwAlMfPmzGbhijaC6ga+evRXGNa/HqUcDsvs6e+wtKWN6oYhTNxoI7Qu2h8+CHGIRMSxSzqh2K7hJhjbCBvHiCskHhH/NUNeBSi08qjpU10Otmpt7yCM12bhm2LeOmheuoTps+birGD8WjbaaBxpPwBItklTDlBk2xuZ8f48wlDwghRbbrsTNZm1W1jqo+i9wy+/Zq9iWIpuiZ8nn2zqSXtxcYyL40SAK4WkvGT3294y4X+IijD/DHACIhGP3n8Pp5x8MmeddR4LljSTWP0+uLoLsHLlSlpaWhAnKK0ZPHwk/frWIAq0sslZKjk7jgq8NeNdshEMGLYem2++frJahbPENuaV51+iqa2T/sPWZZ0RAzDKK+utayAQh1meefof/Pmue/jTXXdz11139Xr86U9/4U9/vptHn3iBzlzY806fLYqkk1MqcTk0PgOHDkRphdKappY2cvmPfkYpLk2Mdcyd9S7LmtsQoLZ+IKNGD8VXRVfGxO8FJ9DYuIiZc5bgREjV1LPDtluR9j85CaN6LH2slEpGaMXOPBHqq9IrevKtcU1vx6eJOPeJpJGsiihEYYGOtlaUCMYzDBg1nLTx/1+sXfRpUhHmnwmKKMzzxisv0dHZQXtHlhXNbUVTifuASihYG/Pcc8+zoqkJgCAVsM1229K/bx9QFqXibhNlkO3q4M23ZmFxbLz5Fgzu1x+LRSlNWCgwc8ZswlgYOXY8/RpSxYWPXFGzXB1ByOU7+Nm1V3HiSSdzwgkncfwJJ3DCCSdw/PHHJ8cJJ3DCCSdx4gmnctyJp/LTq39Oc1tnz1t9riilGT5yWJLVAosWLqKjs6u37msNRJJAq9dffplIksW4xqy7PsOHD0EX+w3tLGDRyvD+nPfp6ApxEtG3/1DGjhmMIVl0LAxDbDGQ638JEUdXVxfWdp8Y75YHaz8nXMxxyGWztLa0IAja81h/ow0oLlX3P01FmH8GaCXkWlt4f9FyIudo71rK3XffS67giJPBcDFYwyFYrIsJo5DmJXO5/Zd/oi0X4rTHkHGbcOA+O1LvBWgkCUxBQ6xwQOvy+SxbPI9Uqp4xG21ATaAxogBLV+tC3pgzG4Jqtt9uEsb3QWJiIqxbsxoowDMBe07Zj5NOOIqTj/86J51wIieeeCInn3wyJ510EiedeCInnHgiJ550LCcdfxL7fGlbajKpnrf6jOnWqJUBk2LgmFGktYeRiM4li1nW1EboHFJeybAXc4QIFiHftZLX33qPyGmM5zNy7DoMb6hFaYsohdMKwQOJWDbjPWyUxylFv4F9qO/XgLiQrval3P7z2/nX1LfoisMPXbPmP0d1E5aq7M3zabBqTOcQiUEiIMYhxCLE4rA2YuHSxSircFpjdAguJiyNIVSynV+pFXxYVyciuFjT0byApSs6EASTzrDZmFGIiYnV/15nuRo9Z0QrfArEeZn56j9ls7EjRGPEaE+GjlxP/njPQ9KeiySysTixRR/zUPLZNpn26lT56n57SHWQEk95Ujd4lPz8t3dJWzZfnP2Pix4XViS28n/tnXeAJVWV8H/n3qp673WYmZ6cA2kGVIIEFZAgoKAgLKCLYHbXuIY1rHERI6Ci4q7hE7OCSBZBkIzAkHNmyDCRmemZTu+9qrr3fH/cej093Q0CzozsWL+27OF1vapbN5w699xzz0ldU/96/q90yynjdfKMBfrbS27QzPlwrm/ofTdfqFvMmKzjJm+tZ156izbrfXrjdZfrfY8v0aYb6Weu6tVnqaaNumZpU9NmqmkajizLBv/dyFLN0qY2mw2tp5lmL7G4Mc7lev9tl+p2sydpZGKtdEzVk351rvblfkgsDz8i3o33XtO8oU88eKvuus1sFRNpVBmjX/zOL7Sn3lTv88JjPNNcm+rzfj35v96jXW01FWN0j/3fpA8t6dEVyx7TLx/7Ye0aM1Zf/5YP6lPPrFGfb0ivi/Vjs3ztk+/SzkqliM1yueaaDv/CBsSv89LxPvj2F37qzmXq87o+8/Qjesyhr9PEGBUTqa126Fe++xNd3tfQUPutem991w296no47zXPGnrBr7+v08Z3qrHozC121IV3PKFN39DsJR63aGMzUiUr2eB44LFHHmL5qtWY4CDOM0se55Mf/zhf+uKxXHbZZdxz73088MCDXHHFlXzj61/niCOO4LyLr6CeNWmfPpNPfPZzvPVf3khnzRaLecFIKpiQtNdnLHrgQVb3NmgbN5Htt5kTsmlh8CqsXr6U1GVYa6j3reCii0/jQx/8DGecdTXOpaNoNIKYmDiuEsUJcRIRxzFxHBNF6/6dRDFRbIkjQ8XykosobcQwZ858Xj5/HpER8mYPt99xO/1Nt978foRNVwB1LH/yER5+YjEgRNV2XrHd1iSRxYtg1otKLEhkMSZoxvfdeRvf/PKXeP+HPsr3vvdrps/fiU99/N8Z3xW2/W8uqBZhE7ziXcYzK1bw2KOPcs89d3Ph+X/iv7/4JS669DpyDUkmXJryg5O+zXe//R2uvOpqHnjoIZ56+mlW9/TjvAcN42NUVCGrs/CaG+lppCAJ02fPY+7M8VhpZez6Jza3DJfuJRueZrOuv//pCTp31lQdU6tqUqmoFavWxFqrtuvkqdN11qxZOnv2bJ06dYq2t7dpJUm0c2yX7v/Gw/R35/xZV/T0aubTwvt5nfbhVVV9pgP1lfrRow7QtqRDX3PQu/SZnl513qvzqnnm9MEbL9D5c6ZpXGnTiTNm6Zwt5+n7Pvx5feDplZpl6egajXfBX3tUPWko4TzvnY52mX84aV1/esJntauaKGJ0l/0P0zsfX6a5c0WZR2rKXr32D3Trb076rCaCIpFOnbeD3njvY5o6p6k69a7li55r5pp61xVn6PzZUzSyVq1NNK60advY8brXgYfplTfeqgMDTc3dgOaj3O/F8w/WzJ0LCnXe1IG+ZXr4YYfoFlvM01mzZumUSRO1vRJpZCLFoAarSEWNjbW9c6xOmTZdZ86arVvNn6/f/smvtJ6H/QHe56P6vOd5rt1PL9IDdnm5RpHVtjGT9SPHnay9zbB/w23Qev2/RxmbZRPg1bN6+RM88PBTPPXEkzz4yCMsevAhGgP99A/0M1BPybIMVahWK4wdN4758xew++578oodd2Dm9CkkNhqywrHOZ0EB1NNo9PGjk77FPQ8vZdfX7sd733EklSQGBHVKs28FP/rxz7n2xpuI4jZeu/f+HHr4m5k2ZTwRHmNGS7TbsrcK+mxeyNryMmC9cq1PyzIdtFYl+Hq3Fm8FAXWFViXBO6O4uxRfD/bVIZd8ATjnWXT7JRx5xDt5YMkqOibM4wc//xn/+oY9qRhwYouYJOtQVdJ0gAvPPJVzL74ajzB3y5fx0Y99mEldY4ITiRJ2aBLaIO9dyelnnMm5f/wzPf11OsZ1seur9+Sww97M1nNnkkSVYsvis9XTCyd43QT/+ayxlpO+9GG+9v8uJBkzjS+f+AM+/vZ9MSa4UW4UCvHhfU6W1znx+JNY9MijobF0SFo58YgXvApWgoVcCV44Noo49Mi3cfCB+xPbUDPr9/BwD5dn3Hr5hbztXe/niZVrmL7VDpxy6mns88ptqGhxj+cR42VzpRTmmxBVHfTPzvKURqPBQH8/jWaTPAteLdVqlbFjxtDR2UmlEiMiI4JJDaXVfM45sizDOUcURSRJMvi91oJbvV6nr6+PyMa0d4whji3WUgyWZ7/H34sWTpgUS7xoKwFymJ6jAhJcL60NLn+ts4OgL9KOvcgi5urI1y7jox95D384+zoaGA488t385IfHM7WzihdTJI5Yh6J478iyNHhiKFhbIYoirDUjfJp94X6XNvpZtWoVA42UjjFj6egcQ1slCNPnascXQ0skGpWwmJ01OfuX3+O0y++lVungmH/7EIfstQOYjW/8avWxZrM56LnyfE0erT4+tM+uoyWePP3dz/Df//l+fvaHy0jVcsjb38PJJ53ApDEV4mIRtRTmJZsELeJIS1BahvwOGmmrJUQKISch085zDYpW87V+y5DMPMOFeeu81vX+1rU3HCH+uMuz4gXWy+rV3SxZsoKVq1bTTJtU29qZNn0G02fMpGv8RGq1KhXrETyoCTODF1lW75sYb7jt1kt499s+xANPLWP8xJl87zdn8S/7LSChLWygGoIWL53htOpveFmGtkPQOYsXFAy+hYZ/Z0MweF+fAx7X7KcuNSLN8XE77dHIsm4MWuVovdR4Ec+rqkOEeXG9YjaHy7nuL2fwjvd8hMWrepk0Zzt+/JOfcdB+OxMTMkZ5gRA/8p+TUpj/U6JDNJ6N3/ld2s+q1au5/IorufLKK7n77rt5/PEncQ7yPEclwznBRgmTpkzlDQe9iQ988ENsMXcWFatYI+jf40nsHYgnrWec/J3P8e3v/Yr+viZzdzuAs079CfNmTqMajQzvO5J1Zqdns/m0ajX8tXX+xq1jxRVmieCiCorRHJUIMM9S0pc6DtVg3tO8yepli3n/u4/hgmtvwSbtfPQLJ/CFj7yTrs4q4PHEIP6fWpjb44477rjhH5Zs7gydBWghdDbOIFD13Hjt5Rx91Ns47fTfc/2Nt7Bk2TO0d45nv/1fzytfuROzZ09j5fIVrFq5kpUrV3HrbXew8IabeOWr92Ta5IlYCZryi7Y0K6hRrETM32YeTz18P7c++Cj9S55kWU/C3vu8io7CpPXctKz4zy7Mg/hpUcwo1jtjY6BF+xUasQJE6/LFboISbHBaHVQ9jZ5VnPDlL3DG+ZeSacQ+b34rn/3kR5g5cVyYiUrx7LJpavsly7AF0ZKSDYpzTi8748c6eUy7UkHbKl2615vfolfecruu6e3RtDGgvT29est1l+vrdnuFtkVGjYgmtQ494gNf0BW99XUeE38nzjnN80zvu+dmfdPrX6tVk2hb+0Q95n0f0wefXK5po6ma1zV3zX96z4hNTSt6qHO5Zi7VzGeap3Vd8sgD+h/vfbuOb4/VRInusd+BevO9D2l/lqn7B+c3falRCvOSjYpzTq/4w//oxDEVldjojrseqDfe96j2p6lmWV3VZZrnTvNmj1554Zm6YPZUtYgak+jYmdvrPY8vVu/yDSjMc2026/rw/XfoEW/cR8e3tWml2qav3GtvPeuyhbqsu0fz5oBqXgqKTcmga2uWqWs2tWf1Mr38knP1dXu9SttqVU3ax+iBh71F73rwYe1rNDV1afnCHcbGmVuXlBQIYKIuJk+bxdxZc3nvB9/D/C1mUouFKIrACMYaJE7YadddefmCLYJHi3ekA6tZ2zvwAmJ3PDetNHNJlDB33nx++oufccKJX2DBrOk8cOtN/Mc738o7P/QJrrrrYdwGumfJ80PEIKKIpNx957V89MPv5z3v/SA33XY/XVPm8pVvfo8f/O//suXcWbQlhtj8k28QGoVSmJdsVESEnV+7H6efeS7n/vE8jjx8P9pig2DRVpYeFFVLEid0dSSoKfyP8waZLxZrB33Z/z5EQqRBmxjGTZrK0e/6EL/5/a/43Kc/yQ5bTGPZk4/iVIpylWwy1BN8lwxxUuGxp1cwbfZ8/uPjn+KsM07nA+95G7OnTSKJW66r5p/bPj4KpTdLyUZHfYZKjEMRMizJkPXDQlg7T//apXzwmCP4w2V34FUZN24af154HbtsPQMLIcrkBsGFOYMaPBkeT7ORsWrpYlZ09zJv6wWM6+jAbqjblfxtNMdLhHeOdKCP+xc9SsfYCUyfNpX2aoSQgUSoCK2fkvUphXnJP5CwcxHAO8eiu67g7W/7N25ftAxbi3jVHofx+9//lKkT2rF4JIj0jUaxhgSFBl9O4zc9rT0RQ+u+bIfnR6l7lPwDCNq4R3AiqEA60M3pv/wljyx+BpWItjGTefcH3snksTWMKpsiTXRLgJfC4x+HFLtByzZ44ZTCvGTTo4r3Gja4uAyfDvDXv1zIb8/6Cz11R7VW5fC3HM1Br98TU+yibGUr3diUAv0fy3CNvGyH58+mGSElJaNgUIxm3HXzNXz1q8ez9JkBTKWdAw47kv/+9MeY1CE4MagK1peDuqTkuSht5iUbHaW10Tx0NY8geY5znocW3cVH/u0D3HDbneRmDLsfcBgnffur7LjlRKK4rfhuSUnJ36LUzEs2OiFIrEGLQ7ySO8fSR+/hcx/9NNffdh+5GcOr9nk9J37ji2y3xVQ0qhbfLSkpeT6UwrxkExDs4w7Bawiu9eRD9/LZ//w0V113E5m0s8teB/GtE77GK7adQ5JY7AbyKy8p+WehFOYlm4BCMDuPpgM8+dDdfPm/j+WPV9xKJhG77bUv3/7WV9lxu3lUYosgmNL6V1LygiiFeckmIUQTdKxc8iTHf+U4LrjoYpwxbLXbG/jWScez23bTiJMIo4pRTy4hoUIQ6aVgLyn5W5TCvGSjk3pQ5+ntXs73v/VN/nTh5dS1na122oPvnfxNdn35POKkjRhQEXIF38rE5BQ0I4dSqJeUPAelMC/Z6ETek6ZNTj/lB/z6zPPpToU583fm29/9JnvtuBUxMaIuZJVRMFmdO274Kyd//3+4auHNRbT10q+lpOS5KIV5yUZHVLnjuos46Uc/Z0XPANO32pqvfP04XrvLtlgBQw7eDx7LljzNd048nm9+8wSuu/VuvBqktKGXlDwnpZ95yUZFVel++iHe/u63ccV1d5Nl8No3vIG3vPVIOhHEeJzxGB+BetasXsV1f72KSy65lKZv5/M/+jWffdeBJMgmSUxcUvJ/lVKYl2xgWuYQBXVkeZMzT/kOH/38SXT39SFqSGpVqrUKESbkbxQQDdmt8zyjUa+T5Z6kbRzf+MXpfOitr6PmmqitldHySkqehdLMUrLRUPUM9PdxwZ8vptHIQl5HhWZ9gDWrVrNy1UpWrlrN6pWrWbVqFatWr2ZtTy/NLMerIkaZPK4jvBxKv/OSkuek1MxLNjCt7iSoy+ntXcM3j/0st9z7OLlPwUVg/GDoW4YFVxryIXG1jc9/7UReu8t2xJqBJOUiaEnJs1AK85INTNGdVFDvURyu2SQVg+AQH4PJ4XnEJlcxmCghiRTBI5Q285KSZ6MU5iUbGB+0ZxXUa8jqo5bcupAkTmPU5H9TMKsqHkW8IibEPDelVbCk5FkphXlJSUnJZkCp6pSUlJRsBpTCvKSkpGQzoBTmJSUlJZsBpTAvKSkp2QwohXlJSUnJZkApzEtKSko2A0phXlJSUrIZUArzkpKSks2AUpiXlJSUbAaUwrykpKRkM6AU5iUlJSWbAaUwLykpKdkMeAkJcz/ktw/R9tDBn5DYYGRMsOKv636ror74/VzZ3BU8IVlC6xh69qjfVQix/NaVSdXj1/ts+JeGXkvR4jnCddY9lhb/Ec4N13sxhEcJddkqT5ETYr1jNELN67rnGSxnKOvgt4tyume90nAGa+fZbz74+dBSFn1BwePWP7+gVV9o8dQayh/+3fr7BkQZfPLnf+Vwpi/Kua79i1rR8AyDdfQsrGvX4rmKhl1XlnDdcJ9wfutO4YTWGBtJqyytMoQz1/XDVj9olfXZS+uHlDCcN5zwHEOuMPKUUVn3XOHaxaBZvy6fD8VNVT1ePV5H9q3WUxc3HLznunu07h0+af3XP5KXjjD3Hu8IFesNOAHnkFwQLzg8KiM7o5IjLnwf5xGvOHLES+jWz1K/SoYnQxVyFN+SG6rFGMmGf4VcHDkZXgX14L2AB/EGcSHtGaOU0ZGHcngNYWFzQZxBcgWnOBwpDryG584MXkPnfaE/6osiaPHicCA5iHeIB/WKkg8vIo6irjwh7KwLZQvtIKEjK6gWg9p7JC/qeOhPS8aox5PhaYITHJCFmgjlGo5SCAI3KBBUBVWDOjDaGHXUe1W8hsxEjia4LNRj8SyjPeuLpxnq17mifZrDTxgVh0M9oV97jydH1SNOQr/JQb0flIMOxY0ieFVT8Ipo6Od4IZPQh4M08fjcFH3a41pvcepFlRTlGKUelYwgtEIfwgF56Ifh+h6noF6K5wllH97+Tk2o/xwkN+BHJhNRMlwhBkUduOfX1yUzkIfx6lpCVh24Ql54xYeePOTH4cnXO7Tok+INxgkmHxlbX1TxpGQ0ySTH4+knJW/VDY1wHZWi7osXzD+Ql04I3Axym5OZDEsNozkqGUYjDAYHiBjssEwz6h2igjM5iEMR8IbIx2AEbzIM8XrfAfDqEfV4Y/B4chyxCiIGT0TsFcywjqhBkAsGkQa5xORkRJowWDLxyPDEC96TGYNRh5KTicGiWA0vARdleAyxJoTh5Mgko6qV9a/zPFDxoBFIhive1Y6Uihe8iVEVIlUw65cxDA6HoKi4YhAYIk0QTHguNUH7EAXNCSK6ut51lBwVH75DFF50xQtSjKKSAYJIst73HK6owXAEja5ZaGAJ1ivYUdqxGEAOT+QduaSIJlhNEKNhsA1vxxeLulArPsabHIMgMlIQDCcnBwSjtqgbj6jFIzjxZDRJAKMWEYcSIcQjNS3ni7jwGapCJgkWh2CxmUWNkomSeMXbFBXBOgtkpLZGpIQcquF/66HqUAxKTi4OsIhGOHHEgM0jMA5nFHDFMyQjcrL6ov+LatE/BGRY7HoHmQ1KgSUjx5Lo8LYdKZbUpzgb7mg1RqSleNkgqCUl1soo2aiGXiu8gISQ/AQFJMeyfn8Mip5HNMKoDRpRFuHiHG98GO8KQZMM1w0/zx2nf2PykhHmuYb3LWpwJkXUY10FRDFiCoFiRqQYyz2o5HgyjHPk1hHnY/DxAFHehjENMNVhDax4dXgRTB60ZpUGQkhLZk2Cd2ak7HCQCUBOnDtS6zDqUWsQX8HbnEhjjKw/DDWnEJA54FGTga9gNQ5yF0G8R8WBt6SmCWowhZa/fldcn5GNl6FYjFjURYjJUXKMq2CwqDUoQjzKhTxNVC3eG5AG4Auha8CAoLhCuxfxYIrBut5lJExIxWGxWB9h1ZDboHZG3iJqwa7/PUcehJ1CRhMnefHyACEndp1E0Ugp5ElRIpR+8rwTbBNPihHB+goqlhgZ0W9eDKlP8dpExWJVsVLBmucevKpK7upIMbOLqIIQBIKLQl/3YFQwUgFTx2CByohnTT0YskJrDFqn8RaJQKSKAk7reO9JvCGPMtS34cUSS4YdfPHIiEQfzgdBHGWezDRx4lCBmNpg+6lXUukn9jUMijOCGaaN5tSpaoTVBI8lF0s8fNzm4E0TL2GmGq419Cqj9WsKJQVy7cfQRiIGLwajHu9zIEcLJWX07yuIYFSDEFYQKggV7PD7e0WlCeJRb/FeaUZ9eO9w6lEDlohYK8S+gkiEFyExI17Bm4yXjDBPNSPKhGfMMv7Y/WOeqSylIx/HfmOPZIHfFTEWrMcOe/Pl3hOp57yBU3jU3YXBcGDHB9hKtsZJjYQcGTHgFEcDxUKuXDxwGvf7heTA9tGr2bftKCJJSGR9ae5VySUIlxU8xRkrT6aeDLCdexVvan87WeKp5jVMNOyFoxm5ZlzSdyr3cwsqjtn5fA4d+z5qjMOLB28RqdN0Tf4y8Dvul3uJh9n9pRCULW1Iac2BgWKwWI2Zb3bkgNrbSU2D83t/zTJ9iNhVOWTcu5njX4aPPdGwZ8vVEeVC3TS4sXk5t2QXkFvhADmKVyZ70YjqRLnlrvwGrm1eSE+0goqLB2chrXIaBBUNOrt00FWdxAK/I3PstkxiFt4IGE88rB2DFmRw5NRND4837+fP/WfSjBtMyds4dNx/MklmjBBCwZYuSFZniV3NxT0/Y7lZzEy3BYeNfQ81nUhkog0izB/PF/HH3lNoSD9dZgKHtv8bU+zs4acNoqqkvsmZPf/DCr8EiQzvqH2SLplGGjeIU8vF/adxtyyk4ivs3/k+tjMvJzKCE4MdIXD7kazKze4Kbmz8GS8Z28av5nW1IzAmwYtnZfYEf+j7HzxNsiillneyf+cxbJvvjCYeJ2EEyTCFI3M5XjL+MnAqD7hb8UCkygHVo9k+2hNvc5rqOKf7ZJbYp/DSBKJ1wrwQlDZLqFQrTEpmsZVsz9bxdnTqFGBdrtfc5+RS56b6FSzMzwcMZpgUCn29uG4xlVAMhhynyj61d7GL7EmaNKhmCVcOnMeNcjGxrt8f1w2fcA0jwhgqTE0WMNtsz9xoa8YyDjHra+Y5QVHLaPIUj3Bv80aucZewPH+MPrMKESWWGlOYy272dexs92VOtB1t0jZCwdlUvGSEuSOYPZ5wD3Bc/a081fYYFVdjm/refLX6Y6pRF4lIUek+VJgKHoeTnJMGPsHV8anE2s6X7M/Z2RxQaDija2VKsAs3TYPv9X2SK2qnYXzGBDeP/6r+nPm6HYkZg6jDSwSkWDWoWJSMRXoHnxo4mP7qAHvX38Sn2/8fNenAFtrDUHJtssI9xVfzd/KYvYsUw/h0Av9dPZWX2Z2DFiMe8cJalnFy/VMsTM7HmWE2OLHgITUpbc020kodo0MHpZC4Kvulb+PTybfpTVbwzTWf4ebOCxjbnMyX41/wCrMXWFPUzTqCrgcNP8AZ2ff4vXwHayI+kB3HwdUPhoHgUy6un8VP5FjW1JaSaDB/GY0AwQs48UgxEMQZxFrafBvjGrP5XOVktjQ7EEkn0XAFpnhUL8pqv5TvZ5/n+uh81NQxeZUvue/zqtpbibRKrDmQhJeGBPumqONp7uOL+TtZah9my8YOHFf5HVPMXMwG0pbudTfwBfev1GUV7XmVV0dH8eH4eBKtUEGKQWxQAVEDeHpYxVf73sEdbdcxqTGLE5KzmW3noyaj4fs5aeATXFE7m2qW8FnzC15r34TYqBDjw15c6lA859VP4bfmqwxEDQ7rfy//1vlNEknIRbjfXcfn3dEMmNV4o4zJarxXPs1B0SeoUMGbDCEqzGDryB10y1N8rudQHh7zENZnVHUsH8lP4KDquwDItJ//6n8L91RuwNtm0c+DaUFVwqgyGRVncRJTy6ts2787Hxh7LHPkZUQ+Jo+CearpBzgt/y6nm2/jxFNzhu64QcXFODFgMqyaQhqHAZU4h4qhUp/Ih5MT2C85kogaTfr4Sf3L/Dn5KU1jsKnFRnUym4OvYSWIOPWuEOgRSa4kdPKyxp58pO1bTDIzSRz42GC8kKmnKWu501/LD5tfojtZTEo/GQ6MYLzgvUdMG7FCpxvPofJB3py8j05Twft2RAwJGQxTnDYWG6aXbwCKfgGi5JKRS8qaaC331a7gInchTelHh9lZhwpNJ45MUnJJ8RIabaQIH044IyzL5TSMZ3n0FL/qPY4+7QFN8cUCk3HrZ4ZXPFlRTke+XqcbgVfucTeyKl9OU+qkMkB/tIbb0z/jVUE91guIogaqbizjsulMbs5a7xjbmEDdNlAf4yPDxMYMJjdnF3+fzZTmLCakU6n5hExA/RicNEO9kBX27uGFa7HuD36wLrNQl8VfvcQ4k+FlAPGeMY1pbNN4BfMb27OgsQPzG9uz3cDOzK/vzNx0J8Y151HJavSYHpZE9/Gd+me519+KyCgLh6YZzE9kLNEHeCS7hYw+cpeTSpNL3J9I8wyjipdQV4NvAAAJi7S5ZGSm9bz+OZ73xRDqpG6brKms5c7GVdzj/kolDbMRP0zbpegnjqwwXeSDbdCaZXnJyYt+GxbQhmuUQyieJfS9lNxkOMkHZ2UAXjKcZDRtndQ06It6ubVxDU6y4qJuhJ0bQGSAxf4+uiurcOQ0bVa0/7o6diLkpok3dYy3jO+bztT60GMa4xvzaMsnoSg90Rpu6biCU3q/zHJ9mtwoxgtSLBo6HLmEZ1DfxZz+Bcyob8X0gW2ZXp/L1MYspjZmF79n0ZnPpyubzeR8Cu2ubVCRWVePGY5epuoMtk53ZNvGzmzb2IGtmy9n6+bL2Dp9OVsMLKCjMR6H0G1Wc2PtQr7d/CCreBKkWKsRxUuDu5vX8aP6f7O4+gApdcan89gtPZCD+9/NQek72d29kTnNSTibsaryDOfqiZzX/yMauceQE2leKIKbhpG97yWDAkoj7uEcPYFH9B6cNgvnoKAFrDeY/04UxRlDf9THQ7Wb+Ut6KqmmmMwGO+Woo+v5UZc+/pKeTq9dw1g3hal+Omk8wNX6B1b75cjgwpTS6bt4T8d/8f3kXI6vnsPx1bOL3+fw+cpPmd6ciRXPmGwMX6ydwvHVszi+ejYn1M7m+NrZfKPtLI5q/zixVMglwr+IFg6DfbTnDQt4VhyxVthGduFLtVP579rvOLZ2KsfVTuPY9lP5Wu1UToxP46ttv+Td7rNMd3PIIni6ehdXu3PokzXDLxwklRoaWueO/HpWVxYTY5mbbYcYz13xLSyWh1FSvBhUwqLi+pcYKaQ2JIpHRPECAyZnRXURZw58n+WyGO8M4tc3i704nv8zDJ9Ua+FFZFVAwm+Hcl90O4vzB8mMg2BkWe97ADnCQncF/fFaDGno71pcdPBlHkaBiKPqOzi49h6+3nYWX287i2+0nc032s7mm/Hv+Iz8L8fkH2dKOguRjDs6ruay/HS8NslNPuL2Bsvh9miOr53B1zt+yzc6TuP42jl8o3ZucZzHN2rncWLtDL5TuYBjx/yGHSt7Y0ZZfK5lbfxr5cMcW/kNX49P57i2X/OV6unhqP2Br7WfyReSUzgsex8Ts6l4yVgU38gdzavIJEeLxfc1soIL+S3LKk9g1LCvO5LPV37MZ6o/4KOVE/lQ5Zt8qvpDPl07lYOyd9GRjWV13MdfzKksk4dR8ZiwQjq8iBuNFzHUNxVCe2ZJfIXuZDHnDvw/nmFJ4WUBitmwFeVjjHdEWqFfc87zP+EuFpJ7QUgBHzTCF4iq8pQu4rHkTnKbspV/JXv4N2HymCcrT3JLdgWZNMlNhmCItcZUncsMs4A5Mp850vo9n6lMJ/ExIFR8hTm6oPj7AmYzn9nMZ4aZzzgzA289kba8RwLriv8cz/Gcfwo/oe5hXD6RiTKTyWYWk8wsJsssJjOLiTKDCXY682UX3lR7P/+qHycyFkS5I72ePt89UhARI2pZKcu41V9LSpPxzRm8Tv6VOI/olW4uT0+lTj9o0MKDKWPT4cUiOCKF2NfwknJn5XrO119Tl57gsvp3CPPRzIHPl9b6iYrDeiHyEZ3ZGCpZjTVJN7fkl+G0CT4eUUZF6WYVN6XXkWuDMfk4Yh8NO0sQHEJUzECEaekcZssC5rAtc1nAFmzLNrIjO1b242j5FG8x/0HsKzgybsuvpW4HUC1miOtd2TDeb8ks5jGLbZgtWzNX5zNPty2OBczTBWzht2EW85ku29Iu48LkbBiWmLE6hbF2ChPNdKbITKbKHKbKXKYyh2kyj1dEe3F0/Cn2kkOI1JKr5/rsIprSj1FDLrDSL2FRfgeNaIBZzfm8x36BV5g9mGRmkCQdtJuJdDGT+WzHu+Mv8arm6wFYkTzFNf1nk9LyDtpwCuffYtOOhudBq30EGGsmE2XtZDbj9uhKFg78mZSBdWfpi+/8wzFiiHzCDGaSx02eqa7k3L7/pduuIRcJi6UvUHi0Nt08WL+NtXE3YoQFdhf2tkdSoZO6tdzevJpUGxgNQjqzGbn1eCMEH551R24MggdJsSjexCPOidUH7wMJ5TXFgtALZZRxglEfprYakeGwCqa4s1GDwRApWB8jvoZ4oUrMq80b6GpOYSAeoDdexUq/avilg0sjTZ6o38nj9g4qxrCl2Ym9aofQlU/ARyk3uvPpzruLxbLCv3cT4okRlIqHMX4S7dk4UpNygTuFp9M7Sc3a4kWjLfG6ydFgtSdyEV1MYJzrItOcO/0NqDaDA9IwAePxPJrdTLcuI9KEGW57Ite+7oRimFn1oDEqMc7kJETBDREpPLiCE7HVCiau8XK7B1XtoM9krIyexDoX1oaGjVsBEpp4Y9DCowwJi9ZDj8xEeIFYLIjBjxBfyoDtJTImOEpoBIP9vzBhiaetWaHdTGYHsy+xdtCwGU/GD5CaBsYFQ9TKbDEa16nlFbby2zE2mo4xBiNgxIUZmnEk2sl438V+bYcxrjmRBMsiuZeUlNbkZlMxvDb+YbSaNwyD4Ko1tTGbo/Q/iH0bfdFa/sRPWJTdSuabZKRhAV0pTCCuWHx6YQK+tadByWnz7RyUHs3sgW3wZNxauYZLmr8g1RR1YZFNKTbjFAtdwwniO8dpTq6eNTzDhf4MojxlfDaJV5l9mGFnMzmfT+Ict9irWcJDeBkAsuDaSI7xNvjnDjliLzhJMCpkCFazEecoEWqKISHNZxHLIxF80LkLjdmNovY4UawWMxQJfiWh7guvGi12HBoNfthWEN9GJDWMdyQ5RN7ifAOKl10L4x190s+1/Im69BFpO2+KjqGLCbxGD6GSW1ZGq7hbriWjSUrh8z4qrc83bPeOvWA8OAyvyHbhVf4Qqj6mL1nOz9Pj6XP9tJwGvYa9DNraA9nqZ6P0mefNoDJR1PlgGwXzj4jBkJBZhxPHeJ3L1m4HYlXu5zaWmsfxNPDBCTi4TZLS8E1uz66lv7qMyc25zPHzsUPmvmGfQGh3b/Kw0UaFXIq1IlG8KN4ExwQrGdYJoo5IY6xGtOUxqVESrYQxhA8CVsLvHEMqEbbYLzBa0ybOgwyAOgwCJtw/9F2PilJxVZJcULXkYlDxqOagwbdcvIB1WAGrVay2oZLjNMKogM2oeCWybYX3muExfYhetxbvMryzqFZQNVhVnPVIVGPraBfe4j7Cv+nxHGk+QlvWXqxPbNg++Fxsuju9YIRYOzggeRs7NV+H1YTFlUc5LTuZtbIaiysW50Zp9ReBk7DFZmt25Kj4E3RknWSmyZ/0Jzyo99GM6kMGz7MjCMabcKjjvuxmlieLaBrPfNmJ6WYbxskk9jFvQNTSmyzjkvofyH3hniUeP2wDw0sFg8NJhDMeg2Jd++CcIGjKJkzF1QcPB0DNAPc0b6AnGUA1oUYnXXbG8EvjNGGVruBh7g6CKJ/DfLMjnTqeV0f70+bGkkYp1+bn08tKKh78cH+2jY00yUwQFBNkAu+MP8mM+svIRLmldiMXN37NgPSFzWjiglY4xMy1aQh+1IKlTSvs0f4mRNvpi1ZyU/9CnOSYlgKkQpQrA7KG21iIU8eOZi+6mBJmgMOvrMF7KLc5sYuD5osE85JSeLQ4jBpSM8AdupDVZg0RFbbntVS1HRE3wpKnxTUjdagKTgjXlfWPsPifBHOXCkZHjpOmzeiPHE5SRHKMDwqOJ8Jj8cbQiBy9sob7uIo1djmRhznZPBKqYaMblhnmZUx0MxFt8FTbA/ym8V/cpbex2j6DkqKmDyf9qIT9MRPzqRzV+REOj9/N9m17Y5IMLxarG3IH8nPzEhbmQROp2LG8q/YZprk5eDz32Gu5qnk6pCb4U20grE+INcZIwh7mEHZPD8SbnKVti/lV/Sus9StHqFWjeQUEDCqOOj3c4P5MT/wMbXkHr4kOYSxdJG4MB8RvZlI+kTTKuVkuZ5lfgvegvthyLEF7/buQ4e+6UN5n12j/BtJaBPMgQq9dTV3X0qCXlD6a0sOA9NGUBqnvZ6l/gIXpH/mx+Tx16aHm2tnZ7804M2Fw6tyiYZrclF7MEvs4kVbZwe3JGDsexLJVZSfG5dPIyLnH3MiD/na882F7/CZENMF6IXYRzsKkaBbHVD5NNe8il5w/ys+4192Jdw7jHYiQ+2oxmxt+tY2DomF2qkFL3d7uxZRsNnmccbNeSr/0FzMohyo4zbg3u57H4/tpd53sXftX2hndV1oQjIYN8c56nuYhHm3exePZPTye3ssT6T08nC/ixuwqfp2exO/zb5Nok9m9W3BQ8g4SaqhvKxwYhqBKI+tjaXYvT/r7eFLvY4m7j6V5OJZk4ViZPsGS7BGWuSdIGShmBusT+YiUOvgGjl6appucXjL6SaWPhnaz0j3On5q/47L8TMQ4qvlYXhO9gUhrg2NjkkxmH3MYVT+WugiXVs/jm41D+WrPUfyufhI3p9fydP4kDd+LakpuFNUEfIz1lWJjlYwagmRjsWlHwwskdJ6YmbKAQ3gvbdlYVFLOMidzp1lYbC3eUAjOOESgGnXy9o5PsWXf9jiFh+IbuCb7I33SM/xLIwhTSCWXnF67ilv8FQCMy+ayQHbFikEkp1NmsG1zZ6w3rIoXc39+FXXqGG+Krr7pXJqeL44Q9yP2Ic7KA3ItX2+8j68NvIevDLybrw68m+P638OxA2/nc32H84W+t/E9/2lWxoup5pbpfVvw+uQdjM27hl+auvRwdfN31KMGY7KJ7Ft5A7FWMCqM0WnsGx9Ku9boM2u4Jb+Efrt2+Lt1oyPkOBGcUUQFbyJ2s/uyb3YY7S5mdbKc3/efyBJZFHqvGSq2NmRffXZEBUdUhF+o0u4nsq3fGbzylLmXVfbpwvQTXBXTKOem7BIyO8BMXcBsnY8Qnm84xlsqPsN4S4/p4QI5hc/pv/BZfxif9YfxX/ovfFJfz3HRUZwTnUx/1ENNqrx3zOeYZbYlUg8t98wh5JJzmj2Zz2dH8sn8cD7dPIJPZofwiebB/GfzED6ZheNT7mA+mx7BOX0n09B+NASaWQ9vcs5v/oSv1T/EfzffxXED7+S4gXfw5YF38OWBt/O5nrfwmcbhnGqPZ1WyilrayQK3M6+qHYTxESJZ4Ssf8YbqeznCfZgp9QlYn7O60s1t7dfy6+REjvfv5QvNI/hCz1v41cDXeJDbyCQDKogQdkgjMCJMwcbjpSXMBzuQECaCilGhjbHsUz2EPdyBOGCVfYazB77HWruGpjRRInLjcKLPxxIyhHC+CDiT4jRMLisaM51tODz5EG2+nQFT5xz/Y+52N5K6Jrn6YFEcpcN70SL+RpPrG1ezKl5K5Krszv5MMJPDLkerxMS8JjmI2Fdpquey5jn0shaVnLCJ/cUJ85bu3TLUGpXQzNLaej9CXR9EAC3Kb4uXUvBfCa0RTCgOR4Q3GcuTx7kpvozrk0u5vvoXFlYv4pbKJdxS+Qt3tV/N49UH6I67aU/HsVvzYD4z/n+YnSwAG8IpqPc4H+LALMseYWmyBKue2XYb5kQLEBGMt0TesmPyajryiSjKve5Gev0zKA3CMpgU7R6i6oXnKJ5y9Ed9UagEG683nsgLVV+jzY7hyNqHmVXfFq+wqHY9F+dn09ABcuqh3ooZSGsmF4SpFsNv3RZ7L1noO8WazHBUgg3eC8XakOBb/UTD4rgK2OKe3kBVKrwmej2Ra2eVWc499RtJCRt3cgMDrof75Q4ijdmBPWkzbThT9JnhlSfBlJZIMEuuiZazOlrK6mhZ+G2XkpomqV9Dn+3HieKkg3ubN9CtvTjyEKBLZIhpTlBV+qWXFdFTrIif5pnkaVZUnuSZyhJWVBbzTHGsiJewJHma3qgb9XFYIxqc4YV+7UzKQ/YWbq78hZviS7k5voIbkou5rno5N1cu4c7OhTxReQwnORPdeN7Mu/l4+w8ZJ1OwVlG1KJ5IIjp1AkdVPsR/Jv/D6/JjmJ5uTUfeRUaTtfFqliaPc1f7LZxW+yFfaR7FyfVP8Ii7nQFZgzpT7JIdKSM2FiN7zD+UoQ8ugA87CdUwhokc1PZ2pjXn4/DcVr2GKxq/x6gD11poEqx/AUJwyMaiwngQZgMIsVR5beVg9s7eRJtv5xn7FOc3f8JqnkR8XgQUGmnmEQ2LLE2Xckt+GanJMBKxbeduZJrSo/0M6Foa9LFNZUcm+Ck0ogEeN/fyhL+/iEkif7ettTUMgyuhLRaawsLlqB1MWy/TILYHzyj+ET4pbOLiidTSmU1int+Webodc3U7Zufb0JaPBxXqZFSw7JkdxH+a7/IfnScyx2xHVaKw+zSEusSoJdM6V/pzGYgHiIjYileCb6NP++mhmwZ9jJHxdLnxGAxLzVNck11AOrgA1nrO9Z+r9a4d7gb5Ygn1osHFU8LdnCizzJYcWfswVVOj36RclZ/BXX4h3kM09IUv4Srr/j+8KltnaLGI9+waSXGuAph1L+rWX1UHa4JC+EdYtq3sxjgmIkb5a+N8+lmDYvA0eIg7WWYeIfGd7FrdFyNgvQ3lGOaN4URBLU49bdTYOX8dh+Uf4HD3Qf7FfZDD3Qd5E+9gv+wd7Fzfh6p2stYu40LzO37fPI4e0w0mxKkJlRH+ZYjYVnfjdXoU+/uj2U+P4gB3DAf6Y3iDP5o3uGN4vTuaA/N3cJA7hu3s7kTGjPDKac0oJrAFs/02zNP5zNHtmMRsOlwNwWE1Z1I6hsOyt/M581Peab7MVJmOiA0ulxq8trwR1CptZhyvtgfxvsqJfL72cz7Ktzkiez+vzPZmRr4lNV9FfM7S2hNcnpzFSc1P8YR/gFQaiA/m1k3FS0yYDyfsrAMhoo25ZnsOTd5NZ95Gr21wjvshT/p7yeknchbrEvLge/XiWG/cCR10cWjl/UxpzsWJ5/b4ci5t/h6nITqjFlrVUBFiVPCascQu4X5ZiDcekYires/jd/1f45f93+CXPd/hlOZX+VPvLwc1yrW1ZdycX0pdG4hPRtX6XxxaBKwSnAR9cPQV9tb9gijw0tKahp4ToaJEmpG4hPmyG8fGv+XL0e841p7KV5Iz+FT0P+zU2JsuP45mlLM6Xcs4O52xLqwVGB8VXg8+KHoOVrGU6/PzqWsDpxUey+7i9N4T+FXvNzll4Cv8su8bnL/216RRndwoPXE31/s/0tDeQscdPnEPbKgafDYUiNUSawd7RAezR/+hVOlgZeUJzsp+xHJ5Cm+G7HYtCtkS4eGdIOuiUbbeqaM+DRgfbOFazEBF7fovMAnfHvIBIHTJFHbgVYg4nqw8yFJ9EjykfoBL03NJbT9z/cuYK9sRaXC/84Tds0PrUIUQCE+Fal5jXz2KD1a/zvsrX+MD1a/x/srX+JD9Ch+rnsSxyc94v3yRSc0p9Ng1XCJnckP6J3zTFgul67BYDtAj+Wj8HT5lv8Mnom/ziej7fDT+Lh+Lv7fud/UEPlb9Oq+rvIUaCXaUaqq5Kkfaj3Gs/S1fM7/n2Pj3fMOezb/LF5jd2AE1QtM0WE0/Y6MJ1ExMklfD+gES4rP6EL3UqEfFYgTGy3gWyM68MXoHH0y+xWcrv+DYymm8zx3L7vXXM6UxmVSUB2rX85P+41hpVuARjHtxrsEvhtFG9UsHsSgOYxSrljbpZM/oQHZo7IcXwxq7kp/Xv0W/rMabjMymwaXvRdLSkUTC1M+6hLnsyFuq/05sLA3b4CI5i3vjhSEIgIZvFaoaFEOp3/RwZf0cuiurMOrwvp9r2s/gj22/4LyO73Nuxw84t/ZL/tj+a1bGj2CMoz9qcnN2GU/LI0FAvZAZxnMgCCJhi36Ioz3SmyAQBIHHkWuOL+yRhcgJbnE+tAkafNgn5NOZITOZIbOZaeYxU7ZkT3MAH69+i20HdsekFe7ovJYf9X+eJeYxnM+DKcxHhWucxUd17swWstb24qMm3vRwS+0izmv/IWd3nMy5HT/k3I4fcH7HKSyxT+BJSSVnBUt42N1LCEpbiD8dNuuQ5xXT4QWjwXUDQbA+RsVToYO3d36UKdk06uK4J7mGv/T9jtSlgzODoUI6CPJgUEOLmtcwWxlFRkHxfS85TkJk+DA7GOpvP0RTLcyHKFgq7MmbMVjq9HMfd5C7Ost1OXeZhVRcG692+1Ohg8QnRYjY0WZwHoxgJeQYqPgxRLQRUSOiRkwbVsbRphMYZ2ayvxzDUf7jjM1rONvkr/m5NOP6sBdOceUoI7KdtJs2OuikKmOoSsf6h46hSicdjEHNusXFoTMvRZgkk5lqZzFNtmSGzGW2LOAQ3s1nou8zuX8LepMBrozP5JfNE1jOU2geNuyBB2fpp8kqWclylrPaL8dkBmcaRMSo9cTWMEkmMc9syyFt7+K/2n7O+/REJjW6wHgWs4in3JOgQmr/DuXyBfISE+bDG7mlmTtElchXGKczeGfH55nb2IKBuI9bor9ySeNcUupYZYNOa5wobdLGa+0x7N44iMjFLI8Wcfrab1N3TyM2HRSCLbwoPdrLjf4vKBEVnzDNbs3W6S7Mb76SrdNd2K7+Krbv35Et3QK2ae7G2HQa6oWe+GnurS/Em94NFoI7iuLCeyEn8008IVjTSDwiDq85/fUe1PgQP96u2/4dOkuI9940HiNhqm+wGA2HapUpsgXv7PgCM7PZdDjHw7U7+MWaE+mOHg1xyYtY6aLQkAFub15JT6WbOKsxI1/Alvkrme13YptsV7Zt7M785m7Mczsx023PJJ2ClYjVyUouapwW7LDC0NfOOoZ3pyFoK3nH34GiaBHb2uCYbOZwjHySrnQiDWlyiT2dW7h2lIK0SipU40oouREG6v2FKB9+foFRMjL6097BOC9xXPnbnjKibBO9ijH5WPqiAW6vX02vWcmjejdr7Eoib9ihshsV2lE84kdqz+EyjtwEK31uchq2P7S/hhlpaAaHwSE+gkjZvvo6Mlshs56l0o2jPvyqCEKcVgajxlhvECRsRBt6eFuEx1aMqwyZva4ra2YckWZEajEuwWixkS1qY8t4e96XfJEu107k4XZ7Fec1fkE9aiIqQX7kQrd9lF+s/QzH9b6DH/d+gTXxSiJXKVwmQz+3akl8ROQjqtE49jOHsYvZHyc5A7WV1HUFGIhGSc6xsXjJCHMlxJMIBgFBxWFIQ3IEDYs5gmBsxByzDUfIB6hmHfQn/ZzrfsRiHkHJiUfphM+GZ92mIWnFoCoGhhIGj6jSJjFv6fg0W/j5eJTbO27j4uxPiFEMDm/CZiLrLJl087TexzL7GCp1XtHcl++a8zmp+kdObDufk6rnc0LHWZzQfjbfj//EV9vP5Sj/UTr8WNYm3Sy0l9GtfUA6pKQvhDC1M05xEjOD2cTqaZgGT+jDODJMblH1ITRvyP1DLqDekPoeHrf3hM6ax0z28wBPLoqaHKMeFzWoYXE0C3OMxYgiokRGiKTGfLMDb6t+nMh1kcX93Nx+CVekF9IvvaAaYqt7WKVLuJXLiLTBxGwun7M/5XvV8/le5U98t/Jnvls7n2+1n8/JlT/z/cpZfCz7Fl3ZRJqSc0d8KcuyhzHqyI0BrZFGKdYlRF5IVHDBtWBQRLZeJV5DJqOcgbDf7HkRhktrIiYCYkyInW6rtDOeV1ffxO5yMFYtK5PHOS3/Fquj1SGZh4ZwADglV4sIzMteTuwiBLgruoU88+CSwaxWOU285uCVvIi18mj0IE3xxFSZb7dFJC5Mf6Ef65B+bYAEQ5cdy87Z4STW8aC5mYfyu7g9u5SGqTMr356t4h2CK50RQtoMCYvIxQHBrIM0iyFiizg1rS07xZqFEuKci0MIY7fqhdw2ibwJpqFh5iAl3MNojvpqEXvHoSLrHblJMS4mF4uzrrhekB3h3hFWCZuFsPgoDxupTIwhIjIJeyZvZM/0ragm9MRruCI+nbv8DaSSompxFQ9qWVR9hEcrt3Bv5QaW8xiZ5Jgia5WXEJteRTASk+QOiRNmypbExDS9kEkT1ZCIZVPxkhHmz4cQmU6w1Ng3OYzd84OoqqU7Wc5Dyb04EzrgBsM4nLVE6tk6fzkHyHtocxNB61wmZzNgG6hGRVcOabca2uTK5ln0J/0Ilp3tPoz10+j0k+n0kwaPDibToVMZoxPZIdqH9nwaXms8yb085u4gGy2y4PMkDBVHxcfMlu2IXAf1OOX65oWscsvJojCjiHxElEeIDy/K1DS5Va/jkeRunBcS18Fcsx2IFhHqnk/lGpzJqPqEPeI38yr3JqyrkUX9nOl/xMP+Lrwo4OmN+7m6eTa9tW5wVXbNDmCa2ZJ2nUCnm0CH76TDjxk8qn4qW1Zew1ZuZ1SUpu3ldncVDXKsZjjbJM5iMpPRjJohg4y2IlquO8ICMwg51tWGZIv5+6n68Rxh/50tG6+gkrfzVPwQi82TqE+IilkJEuY3sRi2qe2IJZT5ruivPB0/TGb7yXzIaBTlFYwHNQ2sz1mWP8pj5i6aUZ3OfBxT7VwilWLxc3QTo9eImAq7tu1J4mrU49VcqedzB9cwzsXsWt2PiGoRFjm0zWiLsF4E4yMyUSJvqGUdwRgzRAtKTUaUG7x4fN7gjvxP9NgeVC3jmEqknaO6PapJqEhIDZlJkO4htHEQUgaIvcFZg5osBLEaJdDW6BTPo4aIGu+ofZpt0h0xrsLKeCm/bh7LKl2MmiaKMIZpTPHTsWrpjlZwTnoqfdqDahRCWjiL9RbUkaHkGjGgPTyotxJlFTqzNsYwFlNsstpU/J8S5saHhaLYR4xlMm+pfIKudCJODZmxYdfh3+mkLxKm4EYEq4bIG6ANYyP2i97KXtmhGI3xUR1M2NIfJoVKJhlP+ke5k2sZMHUmN6bxmuSNGCuo8UOOsB05aEGOufE2bNdYgODpsSu4tHE2daIXbQZQY8AKVY3ZrroHbelU2rKI+9tv4pf58SzWR6jTR9PUyUyDnAba6OUBvZVz0x+RmQFiYl6bH8wYOwHjDdaZddpUaxYzRLsaRBRLhGhEZzaeo9r+kxmN2eA9K6tPcXb2M7rd0pDJRXNu4lK8etp9J/t0HESH6SxMPkVjDDki65hkJrCrfS1RZmiYtVycnU6f9OAFbJHST4vUeQ1xZD7H+3T9Q0M4Woeh33qyF5gn9LmaRYxnqt2Gg5P30OZrNMnprawJrqYSDFzBNGMwGjNN5rFVuiOihm55kt/1fIOn8wew2oeXXnI7QMM0GSDnIb2V/21+nl77NJ1pO1PdXKbIvDCbFVlPmLdkiBJC18a+ynx2YkxzEqkf4Fp7ASuip2nL23il2ZeIKmHCEQTqaIuwKoI4WwQsyEmjPnLXxPsM1KGaUckcfdLLMzzFVXoWv/c/xtGgosIeshdiRn9RoH2QJ6hmGOrgc5xmOE3JfTg8gObYTEK7DjEXhrEy8rpDZalIREyVSTKFgyrvZVLWCao8HD3Ilc0/4HwTg6UiNfazR9Kp42hEa7gq/g2/bXydZf5heunB5ymSgqSWyDmW2yf47cBJ3GaupCfuZbKbxQyzHRJyXA0pwcbFHnfccccN//AfQWgGz1pdyRX5mfTG3UxL57JPciQVqa3XLIKQizLWTKJNO7hbLscQpjRWIvaRf2GGbFVkpRk9OQWEmzrJuSG9iMeiu0m0xl5yCDPsVoPf8RgoFhDFGCba6dzXdyMraitAcgyeLbKX8eroEJx1XJ9eyI1cjiZN9qwfzP7Vt1CR1rb34kcFHyyLIf2YVqha5Zb8Ohq2h8wMsEv0esYzab2y9+gzXOLOoN+upiPv4uDkXdRkzJAHIhgRJLxkLIaYDpzWeZC7qJsBlvnHuMMt5Il0ESvSx1mU38FC+TPn52dwofspj1bvQ1zEJDeLD1a/RJdMQ8QGIWk8D+d3crO5FDXKFtnLeXXlDRiSQjujaJ1CGEhEOx1UpMrtXAfe0+2XMkY6mRVvxcPuLs7xp9C0TbZovIxDK++mgwmDNq9WEKfWj4oL7ngKN6fX0JuspmEabOm3Y7bZhj5dwxX+DNaaVWSS8VTjca7Xi7guv4Br8j/x1/x8rs0v4Bp3Ade6P3JT4yLuaF7FK5PXEstouSPX5xl9iss4nYyMrXV7XmPfOCIHqHFK7BPGx1NY6VbwpNwfEi0AVT+GfaOjGS/jC08oAQzt2sb18leUlKXJIm7Pb+CR/CEe8w/zdPMh7nRX8Rf3a/7of8bj9j56Tc60dDbvi7/IHLs9Vot+irCCJ7hSzyKVBrP9duxj34yaCKNKrBUebt7FkugR1iTdRFTYpn9XDm1/HxVtDy9Dybk7u4E77UIQeJU/gG2inYqxknJJdgYrKo+hAt3ZMm73f+VadwHX5hdwbX4+V+sfudKfy1+y33ClnM/aeCU1385OvW/giDEfZKzvQozFacZdupB7zHV48azyS7mncTtX67lcm5/Pwixc85r8fK7LL+Da/E9c6y7mGncetzb+zMP+HraIt6MiHeSk3JxfwaLoVkSFvc3hzGL+unSThRkmvKwE1ZiJ0Qx60uU8pg+QVntZWn+KrZNXMElmEmuV8XYSq/M1POkeoinKw9Ft3Owv5cHsNpa4R3jU3MOt/JVL/W85LzuF2+KrqJteJjXm8a7KF9hWdsEagy3MaZuCl4xmrgRjX0gtmWC8HdTEQ6S1oNFEGLxRIiISE7OXPYwd032xvgIerIuCLXzQx2F0TV0hJGn1EqazPiF2FvGmZVUN9mATrhH7mJrrZB5bc3j7R+hqTsJ6Q+KC7RcV+txa7mreRNPmjG10smN1XwwxLZ1hUHeQYtEIMBLydW4T78bcbD4e6Nal3NZ/EUozZB8vcKIYJTwrbvRZiLR0gdCJa9R4s307++dHMz6dRC4NHjO3c2Hl55wSf4WfRsdxFv/LZZU/sDh+jIqrskVjZ/7DfpXZdltiEiicWdAQwAmNsHmIbifampoHwRSs0xbEYsQRmwqvTt7My/I9sWKoR2u5PD+bJ/IHuap+DgO2H1B28ntRYwLGJ4OulMXoW3cQojHOiObxcvNqNK+gznFL8xKaNIPdVkLUyLpZwy3xRfzVnsEVyR+4IvkDVybh31dFZ3K1PZcro/O4Xi8kk/ooOt1InHGFC2wUPHFG6VuZ9VgD45jCW6OPslX9ZVTyBFMIXNHCviuAGCpS5dXVgzjKf5wpjS1wRngivpc/R7/kNL7JT+Iv8iv7LS6JzuKJ6GEyydkincdR8afZWfcmlhgVg0jYOZyLI3aW2BlMkVQvoCSS8Nr2N1HRTmIXk/gKe9QOpqq18Ao2Od4bVGNiHxH7qHCHdGFGWWxKSlxCZlLui27iyuRMrozP5Ir4dC6Pz+Cy6Hyui87ngfhWBqROImOZ71/DWzs/RRczg0eIBpOp9YV13sOi6H6uqv6BK5IzuCI5m8sqf+Dyyh+4onIGlxf/vij5PRfFZ3JJ9XRutVeSF8nDW1E0I1chcpUiWXaI85Kv6zyDWK90+XZeW30HU91cchexIlnKhX0/p4c+MlOnKh0cXnkfB3A0k5qT8c6zyD7IZdE5/Co5iZ9yHKea47kkOo1F0c1kdi1Ts7kcbT7KntF+1EyEkeBJtql4yWjmxoVYzH30cHf9dqyNWdC/E7t07I8VExrehFCbptC2DYZYY2ZWtmZx/RGq2s64bC67R29kopmKVYszOWaU3ZThTZ3ivOGJ/kX0yDK6smnsmuzPFDsNCImZw70MGAlJeCVips6ge+AZMm0yLp/FVukO7FLbi+X5UyzMLiZiDHPqMziw/UNMzKdibBhoQ7uVtJLGFzvYjEb0N9ew1q2kUyeT9yq71/bHmmQwX2PdNXiw7yYMVabm09g/fhuJaVvvuYLuEcQqIhgRKtrO1tWdmZbPpZ71oDYLrzpRxASvgWluHOOZzJ7NI3lv++dYYHahZsYVkfhMMD85yxJ9gqeaDzExm8xWbkd2qu5dPEPrGYsfIXjDYKn5hMlma55sLKLq20CruLWOVWYZIp5J2Qze1vYxxtnZJGoRchQ7YkZlfB68E6jQJh0s7nuQNjMW8pw9koOJXcw92fUkrsZ4N4Wx2sVYP4nxbhJdbhJd+WS6/ETG+/F0aRcTsilMyOeyd9vh1Fh/9jcavX4NDw3cTk072cq/ip3sHpgigXALT+HXL45OVyM2nSzNH2d8OoNpzS05ID6UNjsWK+H5rFgSamxtt2Ur2Z7+Zp1cGiRq8cajReiANtqYns9kp3RP3t72ZXaK96NqOohagryoqwHt45G+u6lSZZ7fnl3NGxALUS7kRmk343g4v5dq1sbMbCsOq/07E9wsxAgqTdRbFjcXsyp7nHadyI5mb+bGWwNVjHPc1XsTkbfUTI0xTGJ8NplxbiLj3CTGuYl0ZZOZoOOZ7maybfOVvM4ewdHVz7ClvhyMDeawPMJLzpLsMZa4x5ngJjBeJzFWxzMun0CXm0iXm8T4fHJoNz+xaLtJTMgmMj6fyDQ/l92SfajpGLxpcF96BwOum/FuLLvHBzBRZhLnlbCeZdaNP4BmMVPq0kl0MI4Vjadp1y7yvJvp+nKm+3lEvkLNjuPl9jXM8VvS79ZiRYg1Dm0srYTOY+hiKq+sv4Z3xF9kj8qBVE0HRkLArnDT5+5XG4qXTA5Qr2GLsOaOlXYJuBwVZZKZHcJVugq5DZr5UFKfAY41uhKf5zSiAbpkGlXTTsVFNG1Khep634FCYdccZzyrWUmW9+Bsjcl+EomJ8SbCDmsE7x0Dpp9EYxp5Sp9Zi1NPIoaxMg71OX104zRkQ+9gHhEGOyLh5UhSmvTla+mTJcR+AlUX0xmPwUiCMRGgDGiDHreUXDNiY5kgW43MpTkKLvcYMlIT0aSHlTxJt6ygP12LAolto920McXPpsNMJiKm4iKIhy0wuSYN6qz13eSaU4vGMU66CuH97ItR6hwNTVnDWqwbIIuagCFyCd5kRL5Cpx0bcq62wqpqiHGx/oVaGelTGt6z2HRT9WmIL550oWmVtdEanA5JyAHYQT/vgEdJjSPyYKwyNd8Skmcvf4u676fHL0adUjUT6Yi6iIalilPCDl6voJqTZjlro6U4FVJJme23RpLgzrkeTahHKRlNVsvTrOBJ6nkfYgyWmDbbwTg3i6k6FWwwawmOiqzft5uun9V+BUY91nYy0Y8ji4U4EzIbYchYk69kwPRgxTKZ2UCENYJ4j5ecNdLDgFuJo51JMpE2EnITEeWeJ+zTxK6JEY/4ahGDZB0DtkmiFdq0kzZpJ5KInGbIw+rbQqgBB4ijnx7Wsgrjgxbbap9Bhaf4pPV5o9grEWFJtI3xTMES4WnSbVaRag91Emb6yZgoARIQF+KfD8U38L6Ki9bSdMpAtpYsGkBxjPVzqdiw5mONJSUnNw6Tp3TrMnpYSbcspyF9VKgyTmcxVqcyznTS5sdD5IIqNaTztubKG5uXjDBH8yKHkAmLaC4GD2qDdoKGz4MdfMjXNAeFpnFEGhE5iwp467EOcuuIGCXYjQ+mAS8ZxsWAx1nWCZMghtf/Ch6cw2QxvpKRSkqFGPEJKq5ILixFCFhQE6bi0fCBOwqqCuLwaou8i3mRwb6lU2jIXaKClxDxzosheR7XzjRMNo16vNiwYKYh5riiiEYoEnzFyfGSk0pEdVgo3jRs9SFSLbwykjADgOfUPnL1RC7D2VBWo4J4izcU6d8irAt2p5Bw2AQ/5WEvqqzImh6RE3lBTApaw6uGWY43IbbM0C8VkR6HYnFh74KzOJuTY0g0GTETGE6IT96KaR9mahUqw08LpjFvccYj9CPSHkyGhQsr4VW23nfqNKmqQ3w1eIKYJl5bM9AI6yLq1mOBxId2COaV9fu2alFC8ShCRDM4J3qDN1kIAU6Ci1yxgzTENEqKjWAqGeJiUMVHDsQVayBxYX5MiNSjkoW4MMM8U2xm8ZHDm7Tw3Y4Kt8VgOw4Jv0M9hv0JoZGDf/0QJMyehxK5on9ogkoIM2xdEpJ+awxewkwmeBcGe7kqDJs94cNYtUqxsSfHqmCcQURxNqQkFPVAjMcGzxpxeIkLE26IUyQIEQmi4IyGJNRC0c7rLPWbgpeMMPfkmEIQI8FzNBVH7EMeS0WxxSLiUFRzxBucBDuc0TCgrQj4PLgvjUi0G4Lt50W84RBzIi46fhy2LBf2+fW+VSQccKZIIuEM3jbxJME31wcBG2zZoWG9hO3RfxPvwaSoBnusIEWxQ6eAUAAvodN5Q0gk8Xwu7j0OgzcOq67IahRs8EHD0yAI8aiYYmA54mGCwhUCUAb9hM2Qqm19NrLzeh9WMZwJPumRz/Ai5CajktXI47yIwW3CNZVwjeHN5n1hs1ecGEzRQsZ5XFQsgA/a8IcyrDzFLlTFhZlBVkWjdQGxnhV15ALWtWLL2JFda3BblhLnEanNiImDYNCgnMjg4uc68rDwEvq4Cq1t+yqhXGEtp4EnCRu6CC6H0bAi54DRNGxu8YVt3uTkmhCR4lqrGlrEpdcQdCv0+SjsWMbhiInJgoeYmmDyISRkUIpsQcGndT1C0pSwmUwItnbRUOcQXuLOhABw4SMNCSPCW2YII9vCtzYFahIeyyvOKlZT8BW8DYqYaoSYsGZmNB45w3OQGYJrqo/wthFMf6LENBCNQ5KX4vQQYRJc4blmtQiyJ2HH9LruGl5OwY8++OoHJXTozTceLxlhXlKyOaEUb3/42y+JkpINQCnMS0pKSjYDRkwSS0pKSkr+71EK85KSkpLNgFKYl5SUlGwGlMK8pKSkZDOgFOYlJSUlmwGlMC8pKSnZDCiFeUlJSclmQCnMS0pKSjYDSmFeUlJSshlQCvOSkpKSzYBSmJeUlJRsBpTCvKSkpGQzoBTmJSUlJZsBpTAvKSkp2QwohXlJSUnJZkApzEtKSko2A0phXlJSUrIZUArzkpKSks2AUpiXlJSUbAb8fxBTmsUqTZkoAAAAAElFTkSuQmCC;" vertex="1" parent="7">
                    <mxGeometry x="520" y="90" width="221" height="123.31" as="geometry"/>
                </mxCell>
                <mxCell id="9" value="" style="whiteSpace=wrap;html=1;" vertex="1" parent="1">
                    <mxGeometry x="40" y="63" width="760" height="55" as="geometry"/>
                </mxCell>
                <mxCell id="10" value="Sum of Numbers with Addition, in JavaScript" style="text;html=1;align=center;verticalAlign=middle;resizable=0;points=[];autosize=1;strokeColor=none;fillColor=none;fontSize=30;fontStyle=1" vertex="1" parent="1">
                    <mxGeometry x="115" y="68" width="610" height="50" as="geometry"/>
                </mxCell>
                <mxCell id="12" value="Number..." style="rounded=1;whiteSpace=wrap;html=1;align=left;" vertex="1" parent="1">
                    <mxGeometry x="70" y="200" width="300" height="20" as="geometry"/>
                </mxCell>
            </root>
        </mxGraphModel>
    </diagram>
</mxfile>